# This file uses centimeters as units for non-parametric coordinates.

g default
v -0.500000 -0.500000 0.500000
v 0.500000 -0.500000 0.500000
v -0.500000 0.500000 0.500000
v 0.500000 0.500000 0.500000
v -0.500000 0.500000 -0.500000
v 0.500000 0.500000 -0.500000
v -0.500000 -0.500000 -0.500000
v 0.500000 -0.500000 -0.500000
v -0.430000 0.531000 0.430000
v 0.430000 0.531000 0.430000
v 0.430000 0.531000 -0.430000
v -0.430000 0.531000 -0.430000
v -0.531000 -0.430000 -0.430000
v -0.531000 -0.430000 0.430000
v -0.531000 0.430000 0.430000
v -0.531000 0.430000 -0.430000
v 0.531000 -0.430000 -0.430000
v 0.531000 -0.430000 0.430000
v 0.531000 0.430000 -0.430000
v 0.531000 0.430000 0.430000
v -0.430000 -0.531000 -0.430000
v 0.430000 -0.531000 -0.430000
v 0.430000 -0.531000 0.430000
v -0.430000 -0.531000 0.430000
v -0.430000 -0.430000 0.531000
v 0.430000 -0.430000 0.531000
v 0.430000 0.430000 0.531000
v -0.430000 0.430000 0.531000
v -0.430000 0.430000 -0.531000
v 0.430000 0.430000 -0.531000
v 0.430000 -0.430000 -0.531000
v -0.430000 -0.430000 -0.531000
vt 0.375000 0.000000
vt 0.625000 0.000000
vt 0.375000 0.250000
vt 0.625000 0.250000
vt 0.375000 0.500000
vt 0.625000 0.500000
vt 0.375000 0.750000
vt 0.625000 0.750000
vt 0.375000 1.000000
vt 0.625000 1.000000
vt 0.875000 0.000000
vt 0.875000 0.250000
vt 0.125000 0.000000
vt 0.125000 0.250000
vt 0.375000 0.250000
vt 0.625000 0.250000
vt 0.625000 0.500000
vt 0.375000 0.500000
vt 0.125000 0.000000
vt 0.375000 0.000000
vt 0.375000 0.250000
vt 0.125000 0.250000
vt 0.625000 0.000000
vt 0.875000 0.000000
vt 0.875000 0.250000
vt 0.625000 0.250000
vt 0.375000 0.750000
vt 0.625000 0.750000
vt 0.625000 1.000000
vt 0.375000 1.000000
vt 0.375000 0.000000
vt 0.625000 0.000000
vt 0.625000 0.250000
vt 0.375000 0.250000
vt 0.375000 0.500000
vt 0.625000 0.500000
vt 0.625000 0.750000
vt 0.375000 0.750000
vn -0.045465 -0.045465 0.997931
vn 0.045465 -0.045465 0.997931
vn 0.045465 0.045465 0.997931
vn -0.045465 0.045465 0.997931
vn -0.045465 0.997931 0.045465
vn 0.045465 0.997931 0.045465
vn 0.045465 0.997931 -0.045465
vn -0.045465 0.997931 -0.045465
vn -0.045465 0.045465 -0.997931
vn 0.045465 0.045465 -0.997931
vn 0.045465 -0.045465 -0.997931
vn -0.045465 -0.045465 -0.997931
vn -0.045465 -0.997931 -0.045465
vn 0.045465 -0.997931 -0.045465
vn 0.045465 -0.997931 0.045465
vn -0.045465 -0.997931 0.045465
vn 0.997931 -0.045465 0.045465
vn 0.997931 -0.045465 -0.045465
vn 0.997931 0.045465 -0.045465
vn 0.997931 0.045465 0.045465
vn -0.997931 -0.045465 -0.045465
vn -0.997931 -0.045465 0.045465
vn -0.997931 0.045465 0.045465
vn -0.997931 0.045465 -0.045465
vn 0.000000 0.914349 0.404927
vn 0.000000 0.914349 0.404927
vn 0.404926 0.914350 -0.000000
vn 0.404926 0.914349 -0.000000
vn 0.000000 0.914350 -0.404926
vn 0.000000 0.914350 -0.404926
vn -0.404926 0.914350 -0.000000
vn -0.404926 0.914350 -0.000000
vn -0.914349 -0.404927 0.000000
vn -0.914349 -0.404927 0.000000
vn -0.914349 -0.000000 0.404927
vn -0.914349 -0.000000 0.404927
vn -0.914349 0.404927 -0.000000
vn -0.914349 0.404927 -0.000000
vn -0.914350 0.000000 -0.404926
vn -0.914350 0.000000 -0.404926
vn 0.914349 -0.404927 0.000000
vn 0.914349 -0.404927 0.000000
vn 0.914349 0.000000 -0.404926
vn 0.914349 0.000000 -0.404926
vn 0.914349 0.404927 0.000000
vn 0.914349 0.404927 0.000000
vn 0.914349 0.000000 0.404926
vn 0.914349 0.000000 0.404926
vn 0.000000 -0.914349 -0.404927
vn 0.000000 -0.914349 -0.404927
vn 0.404926 -0.914349 0.000000
vn 0.404926 -0.914349 0.000000
vn 0.000000 -0.914349 0.404927
vn 0.000000 -0.914349 0.404927
vn -0.404926 -0.914349 0.000000
vn -0.404926 -0.914349 0.000000
vn 0.000000 -0.404926 0.914349
vn 0.000000 -0.404926 0.914349
vn 0.404927 0.000000 0.914349
vn 0.404927 0.000000 0.914349
vn 0.000000 0.404926 0.914349
vn 0.000000 0.404926 0.914349
vn -0.404927 0.000000 0.914349
vn -0.404927 0.000000 0.914349
vn 0.000000 0.404926 -0.914349
vn 0.000000 0.404926 -0.914349
vn 0.404927 0.000000 -0.914349
vn 0.404927 0.000000 -0.914349
vn 0.000000 -0.404926 -0.914349
vn 0.000000 -0.404926 -0.914349
vn -0.404927 0.000000 -0.914349
vn -0.404927 0.000000 -0.914349
s 1
g bevelled
f 25/31/1 26/32/2 27/33/3 28/34/4
s 2
f 9/15/5 10/16/6 11/17/7 12/18/8
s 3
f 29/35/9 30/36/10 31/37/11 32/38/12
s 4
f 21/27/13 22/28/14 23/29/15 24/30/16
s 5
f 18/23/17 17/24/18 19/25/19 20/26/20
s 6
f 13/19/21 14/20/22 15/21/23 16/22/24
s 2
f 3/3/25 4/4/26 10/16/6 9/15/5
f 4/4/27 6/6/28 11/17/7 10/16/6
f 6/6/29 5/5/30 12/18/8 11/17/7
f 5/5/31 3/3/32 9/15/5 12/18/8
s 6
f 7/13/33 1/1/34 14/20/22 13/19/21
f 1/1/35 3/3/36 15/21/23 14/20/22
f 3/3/37 5/14/38 16/22/24 15/21/23
f 5/14/39 7/13/40 13/19/21 16/22/24
s 5
f 2/2/41 8/11/42 17/24/18 18/23/17
f 8/11/43 6/12/44 19/25/19 17/24/18
f 6/12/45 4/4/46 20/26/20 19/25/19
f 4/4/47 2/2/48 18/23/17 20/26/20
s 4
f 7/7/49 8/8/50 22/28/14 21/27/13
f 8/8/51 2/10/52 23/29/15 22/28/14
f 2/10/53 1/9/54 24/30/16 23/29/15
f 1/9/55 7/7/56 21/27/13 24/30/16
s 1
f 1/1/57 2/2/58 26/32/2 25/31/1
f 2/2/59 4/4/60 27/33/3 26/32/2
f 4/4/61 3/3/62 28/34/4 27/33/3
f 3/3/63 1/1/64 25/31/1 28/34/4
s 3
f 5/5/65 6/6/66 30/36/10 29/35/9
f 6/6/67 8/8/68 31/37/11 30/36/10
f 8/8/69 7/7/70 32/38/12 31/37/11
f 7/7/71 5/5/72 29/35/9 32/38/12
