# This file uses centimeters as units for non-parametric coordinates.

g default
v 0.866025 -0.034830 -0.500000
v -0.433013 -0.372230 -0.500000
v -0.433013 0.539410 0.500000
v 0.500000 0.505947 0.000000
v 0.327327 -0.353652 -0.755929
v -0.654654 -0.034830 -0.755929
v 0.000000 0.000000 -1.000000
v -1.000000 -0.034830 0.000000
v 0.500000 -0.577316 0.000000
v 0.433013 -0.034830 0.750000
v 0.033494 0.597423 0.250000
v 0.866025 -0.034830 0.000000
v 0.413663 0.428185 -0.377964
v -0.052843 0.447884 -0.627964
v -0.433013 0.539410 0.000000
v 0.327327 0.356357 -0.755929
v -0.327327 -0.034830 -0.877964
v -0.433013 0.539410 -0.500000
v 0.000000 -0.034830 1.000000
v -0.433013 -0.536705 0.500000
v -0.827327 -0.034830 -0.377964
v -0.433013 -0.536705 0.000000
v 0.033494 -0.594718 0.250000
v 0.866025 -0.034830 0.500000
v 0.413663 -0.503191 -0.377964
vt 0.833333 0.500000
vt 0.113593 0.230053
vt 0.386407 0.769947
vt 0.750000 0.833333
vt 0.934963 0.308125
vt 0.113593 0.500000
vt 1.000000 0.500000
vt 0.250000 0.500000
vt 0.750000 0.166667
vt 1.386407 0.769947
vt 1.113593 0.230053
vt 1.113593 0.500000
vt 1.386407 0.230053
vt 0.583333 0.500000
vt 0.568204 0.801640
vt 0.750000 0.500000
vt 0.842482 0.762604
vt 1.024278 0.730911
vt 1.250000 0.769947
vt 1.068204 0.801640
vt 0.934963 0.691875
vt 1.056796 0.500000
vt 1.113593 0.769947
vt 0.500000 0.500000
vt 0.386407 0.230053
vt 0.250000 0.769947
vt 0.113593 0.769947
vt 0.181796 0.500000
vt 0.250000 0.230053
vt 0.568204 0.198360
vt 0.666667 0.500000
vt 1.250000 0.230053
vt 0.842482 0.237396
vt 1.068204 0.198360
vn -0.672964 -0.691740 -0.261943
vn -0.672964 -0.691740 -0.261943
vn -0.672964 -0.691740 -0.261943
vn -0.672964 -0.691740 -0.261943
vn 0.345743 0.728318 0.591621
vn 0.386671 0.731315 0.561840
vn 0.386671 0.731315 0.561840
vn 0.338315 0.727583 0.596796
vn 0.782214 0.609443 -0.129308
vn 0.739257 0.661136 -0.128055
vn 0.821113 0.555771 -0.129971
vn 0.821113 0.555771 -0.129971
vn 0.066659 0.988110 -0.138547
vn 0.068884 0.987733 -0.140139
vn 0.086298 0.984517 -0.152576
vn 0.089920 0.983664 -0.155950
vn 0.089655 0.983727 -0.155703
vn 0.086298 0.984517 -0.152576
vn 0.500000 0.000000 -0.866025
vn 0.500000 0.000000 -0.866025
vn 0.500000 0.000000 -0.866025
vn 0.500000 0.000000 -0.866025
vn -0.213386 -0.689746 -0.691894
vn -0.214548 -0.689629 -0.691651
vn -0.254507 -0.684998 -0.682645
vn -0.225169 0.557560 -0.799016
vn -0.226211 0.543220 -0.808542
vn -0.228586 0.505535 -0.831975
vn -0.228586 0.505535 -0.831975
vn -0.707107 0.000000 0.707107
vn -0.707107 0.000000 0.707107
vn -0.707107 0.000000 0.707107
vn -0.707107 0.000000 0.707107
vn -0.829157 0.534702 -0.163074
vn -0.829157 0.534702 -0.163074
vn -0.829157 0.534702 -0.163074
vn -0.829157 0.534702 -0.163074
vn -0.704719 0.695817 -0.138600
vn -0.704719 0.695817 -0.138600
vn -0.704719 0.695817 -0.138600
vn -0.704719 0.695817 -0.138600
vn -0.657242 -0.742512 -0.129263
vn -0.657242 -0.742512 -0.129263
vn -0.657242 -0.742512 -0.129263
vn -0.657242 -0.742512 -0.129263
vn 0.305753 -0.757029 0.577427
vn 0.301566 -0.758100 0.578224
vn 0.332479 -0.749813 0.572047
vn 0.332479 -0.749813 0.572047
vn -0.084909 -0.969657 -0.229250
vn -0.098337 -0.940050 -0.326550
vn -0.098337 -0.940050 -0.326550
vn -0.077953 -0.959981 -0.268998
vn 0.779627 -0.608436 -0.148279
vn 0.822172 -0.554734 -0.127685
vn 0.822172 -0.554734 -0.127685
vn 0.735225 -0.656864 -0.167257
vn -0.123405 0.992356 0.000000
vn 0.299528 0.722835 0.622730
vn 0.299528 0.722835 0.622730
vn 0.274773 -0.764571 0.583036
vn 0.274773 -0.764571 0.583036
vn -0.055251 -0.988038 -0.143973
vn -0.123405 -0.992356 0.000000
vn -0.042857 -0.984606 -0.169453
vn 0.681666 -0.707233 -0.187493
vn 0.681666 -0.707233 -0.187493
vn 0.692735 0.710062 -0.126213
vn 0.692735 0.710062 -0.126213
vn 0.158059 0.962820 -0.219078
vn -0.220879 0.607633 -0.762886
vn -0.220879 0.607633 -0.762886
vn -0.206992 -0.690370 -0.693213
vn -0.206992 -0.690370 -0.693213
s off
g bigRock
f 21/28/1 6/6/2 2/2/3 22/29/4
s 1
f 10/14/5 24/31/6 4/4/7 11/15/8
s 2
f 12/16/9 13/17/10 4/4/11 24/31/12
s 3
f 15/19/13 11/20/14 4/4/15 13/17/16 14/18/17 18/23/18
s off
f 5/5/19 7/7/20 16/21/21 1/1/22
s 4
f 17/22/23 2/11/24 6/12/25
s 5
f 14/18/26 17/22/27 6/12/28 18/23/29
s off
f 3/3/30 8/8/31 20/25/32 19/24/33
f 18/27/34 6/6/35 21/28/36 15/26/37
f 21/28/38 8/8/39 3/3/40 15/26/41
f 20/25/42 8/8/43 21/28/44 22/29/45
s 6
f 10/14/46 23/30/47 9/9/48 24/31/49
s 7
f 22/32/50 2/11/51 5/5/52 25/33/53
s 8
f 12/16/54 24/31/55 9/9/56 25/33/57
s 3
f 15/19/13 3/10/58 11/20/14
s 1
f 10/14/5 11/15/8 3/3/59 19/24/60
s 6
f 10/14/46 19/24/61 20/25/62 23/30/47
s 7
f 22/32/50 23/34/63 20/13/64
f 22/32/50 25/33/53 9/9/65 23/34/63
s 8
f 12/16/54 25/33/57 5/5/66 1/1/67
s 2
f 12/16/9 1/1/68 16/21/69 13/17/10
s 3
f 14/18/17 13/17/16 16/21/70
s 5
f 14/18/26 16/21/71 7/7/72 17/22/27
s 4
f 5/5/73 2/11/24 17/22/23 7/7/74
