# This file uses centimeters as units for non-parametric coordinates.

g default
v 0.527117 0.357688 -0.924432
v 0.879433 0.211664 -0.729582
v 0.697542 0.160428 -1.000000
v -0.276393 0.957640 -0.447214
v 0.223607 0.741686 -0.447214
v 0.000000 0.398473 -0.802271
v 0.879433 -0.000000 -0.729582
v 0.723607 0.525731 -0.447214
v 0.000000 0.000000 0.000000
v 0.276393 0.000000 0.447214
v -0.223607 -0.000000 0.447214
v 0.723607 -0.000000 -0.447214
v 0.715716 0.054354 -0.451085
v -0.723607 -0.000000 0.447214
v 0.000000 0.398473 0.822106
v -0.723607 0.525731 0.447214
v -0.500000 0.741686 0.000000
v -0.000000 0.923034 -0.000000
v -0.223607 0.707079 0.447214
v 0.547593 0.000000 -0.501600
v 0.560377 0.377360 -0.527307
v 0.590240 0.119427 0.334622
v 0.813643 0.149464 0.224380
v 0.500000 0.707079 0.000000
v 0.360091 -0.000000 0.462744
v 0.739262 0.000000 0.413800
v 0.489658 0.259175 0.459231
v 0.573438 0.000000 0.779997
v 0.395535 0.152343 0.772293
v 0.276393 0.888427 0.447214
v 0.739262 0.366122 0.413800
v 0.910872 0.152343 0.425736
v 0.952609 -0.000000 0.731053
v 0.573438 0.339661 0.779997
v 0.758753 0.057143 0.902900
v 0.952609 0.200996 0.731053
v 0.527117 0.000000 -0.924432
v -0.276393 0.000000 -0.447214
v -0.700113 0.150540 -0.447214
v 0.195277 0.211664 -0.696450
v 0.308463 0.097753 -0.534316
v 0.195277 -0.000000 -0.696450
v 0.294416 0.060175 -0.950607
vn 0.552503 0.668210 -0.498233
vn 0.552503 0.668210 -0.498233
vn 0.552503 0.668210 -0.498233
vn 0.261846 0.606251 -0.750930
vn 0.261846 0.606251 -0.750930
vn 0.261846 0.606251 -0.750930
vn 0.829760 -0.000001 -0.558120
vn 0.829760 -0.000001 -0.558120
vn 0.829760 -0.000001 -0.558120
vn 0.261846 0.606251 -0.750930
vn 0.000000 -1.000000 -0.000000
vn 0.000000 -1.000000 -0.000000
vn 0.000000 -1.000000 -0.000000
vn -0.000000 -1.000000 0.000000
vn -0.000000 -1.000000 0.000000
vn -0.000000 -1.000000 0.000000
vn 0.700505 0.360910 0.615660
vn 0.746374 0.286603 0.600653
vn 0.633143 0.452653 0.627882
vn 0.000000 -0.685228 0.728328
vn 0.000000 -0.685228 0.728328
vn 0.000000 -0.685228 0.728328
vn -0.460017 -0.000000 0.887910
vn -0.460017 -0.000000 0.887910
vn -0.460016 -0.000000 0.887910
vn -0.328037 0.904440 0.272726
vn -0.328037 0.904440 0.272726
vn -0.328037 0.904440 0.272726
vn -0.328038 0.904440 0.272726
vn -0.328037 0.904440 0.272726
vn 0.209042 -0.929366 0.304271
vn 0.209042 -0.929366 0.304271
vn 0.209042 -0.929366 0.304271
vn 0.419051 0.904440 -0.079899
vn 0.419051 0.904440 -0.079899
vn 0.419051 0.904440 -0.079899
vn 0.862076 -0.000000 0.506780
vn 0.390636 0.904440 -0.171439
vn 0.390636 0.904440 -0.171439
vn 0.390636 0.904440 -0.171439
vn 0.411669 -0.887785 0.205834
vn 0.341685 -0.918591 0.198602
vn 0.366919 -0.908207 0.201320
vn 0.000000 -0.685228 0.728328
vn 0.991133 0.000000 -0.132875
vn 0.991133 0.000000 -0.132875
vn 0.991133 0.000000 -0.132875
vn -0.243858 0.672346 0.698916
vn -0.243858 0.672346 0.698916
vn -0.243858 0.672346 0.698916
vn 0.219524 -0.958136 0.183804
vn 0.390636 0.904440 -0.171439
vn 0.390636 0.904440 -0.171439
vn 0.105724 -0.814983 -0.569759
vn 0.444643 -0.493903 0.747230
vn -0.110324 -0.796463 0.594538
vn 0.493765 -0.292381 0.818969
vn 0.231709 -0.319933 -0.918670
vn -0.099126 -0.632815 -0.767932
vn 0.065871 -0.164262 -0.984215
vn 0.820419 0.538637 0.191788
vn 0.820419 0.538637 0.191788
vn 0.820419 0.538637 0.191788
vn 0.528471 -0.253210 0.810311
vn 0.000000 -1.000000 0.000000
vn 0.000000 -1.000000 0.000000
vn 0.000000 -1.000000 0.000000
vn -0.889028 0.442872 -0.116162
vn -0.809495 0.585507 -0.043576
vn -0.675425 0.731415 -0.093982
vn -0.328037 0.904440 0.272726
vn -0.604378 -0.685228 0.406435
vn -0.604378 -0.685228 0.406435
vn -0.604378 -0.685228 0.406435
vn 0.036438 0.285375 -0.957723
vn 0.390636 0.904440 -0.171439
vn -0.243858 0.672346 0.698916
vn -0.349237 0.470963 -0.810079
vn 0.436967 0.046820 0.898258
vn 0.612702 0.207597 0.762561
vn 0.502154 0.078853 0.861176
vn 0.730218 0.259554 0.631992
vn 0.820419 0.538637 0.191789
vn 0.620632 0.224690 0.751219
vn 0.069384 0.000000 -0.997590
vn 0.069384 0.000000 -0.997590
vn 0.069384 0.000000 -0.997590
vn -0.000000 -1.000000 -0.000000
vn -0.000000 -1.000000 -0.000000
vn -0.000000 -1.000000 -0.000000
vn -0.607341 0.793410 -0.040452
vn 0.619547 -0.665263 -0.416636
vn 0.619547 -0.665263 -0.416636
vn 0.619547 -0.665263 -0.416636
vn -0.403174 -0.429967 0.807824
vn -0.403174 -0.429967 0.807824
vn -0.403174 -0.429967 0.807824
vn -0.409370 0.904440 -0.120019
vn -0.277036 0.224690 0.934219
vn -0.277036 0.224690 0.934219
vn -0.277036 0.224690 0.934219
vn 0.046766 -0.930890 0.362295
vn 0.046766 -0.930890 0.362295
vn 0.046766 -0.930890 0.362295
vn 0.769253 0.606252 -0.201764
vn 0.769253 0.606252 -0.201764
vn 0.769253 0.606252 -0.201764
vn 0.990786 0.000000 -0.135440
vn 0.990786 0.000000 -0.135440
vn 0.990786 0.000000 -0.135440
vn 0.360252 0.904440 0.228487
vn 0.360252 0.904440 0.228487
vn 0.360252 0.904440 0.228487
vn 0.663352 0.000000 0.748308
vn 0.663352 0.000000 0.748308
vn 0.663352 0.000000 0.748308
vn 0.298676 0.538637 0.787821
vn 0.298676 0.538637 0.787821
vn 0.298676 0.538637 0.787821
vn 0.445869 -0.040445 -0.894184
vn 0.441292 -0.015270 -0.897234
vn 0.445486 -0.039619 -0.894412
vn 0.425748 0.019946 -0.904622
vn 0.295126 -0.025193 -0.955126
vn 0.412067 -0.005082 -0.911139
vn 0.302539 -0.023954 -0.952836
vn 0.000000 -1.000000 -0.000000
vn -0.000000 -1.000000 0.000000
vn -0.000000 -1.000000 0.000000
vn -0.000000 -1.000000 0.000000
vn 0.355046 -0.679566 -0.641975
vn 0.355046 -0.679566 -0.641975
vn 0.355046 -0.679566 -0.641975
vn -0.409037 0.912452 -0.010941
vn -0.409037 0.912452 -0.010941
vn -0.409037 0.912452 -0.010941
vn -0.000000 -1.000000 0.000000
vn -0.865041 0.454138 -0.213222
vn -0.865041 0.454138 -0.213222
vn -0.865041 0.454138 -0.213222
vn -0.865041 0.454138 -0.213222
vn -0.361336 -0.665263 0.653346
vn -0.361336 -0.665263 0.653346
vn -0.361336 -0.665263 0.653346
vn -0.172172 0.219159 -0.960378
vn -0.172172 0.219159 -0.960378
vn -0.172172 0.219159 -0.960378
vn 0.000000 -1.000000 -0.000000
vn 0.000000 -1.000000 -0.000000
vn 0.000000 -1.000000 -0.000000
vn -0.625117 0.538637 -0.564888
vn -0.625117 0.538637 -0.564888
vn -0.625117 0.538637 -0.564888
vn 0.000000 -1.000000 -0.000000
vn -0.999655 -0.000000 -0.026258
vn -0.999655 -0.000000 -0.026258
vn -0.999655 -0.000000 -0.026258
vn -0.006636 -0.420342 -0.907342
vn -0.006636 -0.420342 -0.907342
vn -0.006636 -0.420342 -0.907342
vn -0.509489 0.267477 -0.817849
vn -0.509489 0.267477 -0.817849
vn -0.509489 0.267477 -0.817849
vn -0.931633 0.000000 -0.363401
vn -0.931633 0.000000 -0.363401
vn -0.931633 0.000000 -0.363400
vn -0.819963 0.000000 0.572416
vn -0.819964 0.000000 0.572416
vn -0.819963 0.000000 0.572416
vn -0.206856 -0.930890 -0.301090
vn -0.206856 -0.930890 -0.301090
vn -0.206856 -0.930890 -0.301090
vn -0.330187 -0.929366 -0.165094
vn -0.330187 -0.929366 -0.165094
vn -0.330187 -0.929366 -0.165094
vn -0.202343 -0.569526 -0.796679
vn -0.202343 -0.569526 -0.796679
vn -0.202343 -0.569526 -0.796679
vn -0.146882 -0.599308 -0.786928
vn -0.060288 -0.701650 -0.709967
vn -0.071671 -0.675557 -0.733816
vn -0.015515 -0.611841 -0.790829
vn -0.000000 -1.000000 -0.000001
vn -0.013373 -0.979169 -0.202605
s off
g combined
f 1//1 2//2 3//3
s 1
f 4//4 5//5 6//6
s off
f 2//7 7//8 3//9
s 1
f 6//6 5//5 8//10
s 2
f 9//11 10//12 11//13
s 3
f 10//14 9//15 12//16
s 4
f 13//17 2//18 21//19
s 5
f 14//20 11//21 15//22
s off
f 16//23 14//24 15//25
s 6
f 4//26 17//27 18//28
f 16//29 19//30 17//27
s off
f 7//31 13//32 20//33
f 21//34 2//35 1//36
s 4
f 7//37 2//18 13//17
s 7
f 5//38 4//39 18//40
s 8
f 10//41 12//42 22//43
s 6
f 17//27 19//30 18//28
s 5
f 11//21 10//44 15//22
s off
f 12//45 8//46 23//47
s 9
f 19//48 16//49 15//50
s 8
f 12//42 23//51 22//43
s 7
f 8//52 5//38 24//53
s 10
f 22//54 25//55 10//56
s 7
f 18//40 24//53 5//38
s 10
f 10//56 25//55 15//57
s 11
f 26//58 25//59 22//60
s 12
f 8//61 24//62 23//63
s 10
f 25//55 27//64 15//57
s off
f 26//65 28//66 25//67
s 13
f 25//68 29//69 27//70
s 6
f 30//71 18//28 19//30
s off
f 25//72 28//73 29//74
s 11
f 26//58 22//60 31//75
s 7
f 30//76 24//53 18//40
s 9
f 30//77 19//48 15//50
s 11
f 27//78 31//75 22//60
s 14
f 23//79 30//80 22//81
f 22//81 30//80 27//82
s 12
f 24//62 30//83 23//63
s 14
f 15//84 27//82 30//80
s off
f 32//85 26//86 31//87
f 26//88 33//89 28//90
s 13
f 29//69 34//91 27//70
s off
f 32//92 33//93 26//94
f 28//95 35//96 29//97
s 13
f 31//98 27//70 34//91
s off
f 35//99 34//100 29//101
f 33//102 35//103 28//104
f 32//105 31//106 36//107
f 32//108 36//109 33//110
f 36//111 31//112 34//113
f 33//114 36//115 35//116
f 36//117 34//118 35//119
s 15
f 6//120 8//121 40//122
f 40//122 8//121 21//123
f 20//124 13//125 12//126
f 12//126 13//125 8//121
f 8//121 13//125 21//123
s 2
f 11//13 14//127 9//11
s off
f 20//128 37//129 7//130
f 7//131 37//132 3//133
f 40//134 21//135 1//136
s 3
f 38//137 12//16 9//15
s 17
f 17//138 39//139 16//140
f 17//138 4//141 39//139
s off
f 42//142 20//143 41//144
f 43//145 1//146 3//147
f 20//148 42//149 37//150
f 40//151 1//152 43//153
s 2
f 38//154 9//11 14//127
s off
f 39//155 14//156 16//157
f 37//158 43//159 3//160
f 6//161 39//162 4//163
f 42//164 40//165 43//166
f 40//167 42//168 41//169
f 42//170 43//171 37//172
f 39//173 38//174 14//175
f 6//176 38//177 39//178
s 18
f 6//179 40//180 38//181
f 40//180 41//182 38//181
f 12//183 38//181 20//184
f 41//182 20//184 38//181
