# This file uses centimeters as units for non-parametric coordinates.

g default
v 0.055529 0.006655 -0.170900
v -0.145376 0.006655 -0.105622
v -0.145376 0.006655 0.105622
v 0.055529 0.006655 0.170900
v 0.179695 0.006655 0.000000
v 0.047413 0.319773 -0.133708
v -0.110999 0.313373 -0.082636
v -0.110999 0.292663 0.082636
v 0.047413 0.286263 0.133708
v 0.145317 0.303018 -0.000000
v 0.000000 0.006655 0.000000
v 0.055789 0.572217 -0.122370
v -0.094830 0.567244 -0.087103
v 0.004642 0.573177 -0.001057
v -0.107982 0.570470 0.067076
v 0.034508 0.577437 0.127097
v 0.135725 0.578517 0.010013
vt 0.548284 0.007647
vt 0.373591 0.064409
vt 0.373591 0.248091
vt 0.548284 0.304853
vt 0.656250 0.156250
vt 0.375000 0.312500
vt 0.425000 0.312500
vt 0.475000 0.312500
vt 0.525000 0.312500
vt 0.575000 0.312500
vt 0.625000 0.312500
vt 0.375000 0.688440
vt 0.425000 0.688440
vt 0.475000 0.688440
vt 0.525000 0.688440
vt 0.575000 0.688440
vt 0.625000 0.688440
vt 0.548284 0.695147
vt 0.373591 0.751909
vt 0.373591 0.935591
vt 0.548284 0.992353
vt 0.656250 0.843750
vt 0.500000 0.150000
vt 0.500000 0.837500
vt 0.548284 0.992353
vt 0.373591 0.935591
vt 0.373591 0.751909
vt 0.548284 0.695147
vt 0.656250 0.843750
vn -0.308052 0.104856 -0.945574
vn -0.308052 0.104856 -0.945574
vn -0.308052 0.104856 -0.945574
vn -0.308052 0.104856 -0.945574
vn -0.993319 0.115223 0.006338
vn -0.993319 0.115223 0.006338
vn -0.993319 0.115223 0.006338
vn -0.993319 0.115223 0.006338
vn -0.304176 0.114739 0.945681
vn -0.304176 0.114739 0.945681
vn -0.304176 0.114739 0.945681
vn -0.304176 0.114739 0.945681
vn 0.801675 0.097230 0.589799
vn 0.801675 0.097230 0.589799
vn 0.801675 0.097230 0.589799
vn 0.801675 0.097230 0.589799
vn 0.807039 0.091862 -0.583308
vn 0.807040 0.091862 -0.583308
vn 0.807039 0.091862 -0.583308
vn 0.807040 0.091862 -0.583308
vn 0.000000 -1.000000 0.000000
vn 0.000000 -1.000000 0.000000
vn 0.000000 -1.000000 -0.000000
vn 0.000000 -1.000000 -0.000000
vn 0.000000 -1.000000 -0.000000
vn 0.000000 -1.000000 0.000000
vn -0.038651 0.998960 -0.024202
vn -0.038651 0.998960 -0.024201
vn -0.038651 0.998960 -0.024202
vn -0.038651 0.998960 -0.024201
vn -0.038651 0.998960 -0.024202
vn -0.038651 0.998960 -0.024202
vn -0.269881 0.026145 -0.962539
vn -0.269881 0.026145 -0.962539
vn -0.269881 0.026145 -0.962539
vn -0.269881 0.026145 -0.962539
vn -0.998633 0.034558 -0.039225
vn -0.998633 0.034558 -0.039225
vn -0.998633 0.034558 -0.039225
vn -0.998633 0.034558 -0.039225
vn -0.346237 0.030517 0.937651
vn -0.346237 0.030517 0.937651
vn -0.346237 0.030517 0.937651
vn -0.346237 0.030517 0.937651
vn 0.781930 0.027304 0.622768
vn 0.781930 0.027304 0.622768
vn 0.781930 0.027304 0.622768
vn 0.781930 0.027304 0.622768
vn 0.831603 0.024355 -0.554837
vn 0.831603 0.024355 -0.554837
vn 0.831603 0.024355 -0.554837
vn 0.831603 0.024355 -0.554837
s off
g trunk tree9
f 1/6/1 2/7/2 7/13/3 6/12/4
f 2/7/5 3/8/6 8/14/7 7/13/8
f 3/8/9 4/9/10 9/15/11 8/14/12
f 4/9/13 5/10/14 10/16/15 9/15/16
f 5/10/17 1/11/18 6/17/19 10/16/20
s 1
f 2/2/21 1/1/22 11/23/23
f 3/3/24 2/2/21 11/23/23
f 4/4/25 3/3/24 11/23/23
f 5/5/26 4/4/25 11/23/23
f 1/1/22 5/5/26 11/23/23
s 2
f 12/25/27 13/26/28 14/24/29
f 13/26/28 15/27/30 14/24/29
f 15/27/30 16/28/31 14/24/29
f 16/28/31 17/29/32 14/24/29
f 17/29/32 12/25/27 14/24/29
s off
f 6/21/33 7/20/34 13/26/35 12/25/36
f 7/20/37 8/19/38 15/27/39 13/26/40
f 8/19/41 9/18/42 16/28/43 15/27/44
f 9/18/45 10/22/46 17/29/47 16/28/48
f 10/22/49 6/21/50 12/25/51 17/29/52
g default
v 0.908514 0.382858 -1.220716
v 0.114389 0.998627 -0.779680
v -0.471584 0.353282 -1.285355
v -0.591628 1.098117 -0.354870
v -1.350985 0.382858 0.000000
v -0.578873 0.879952 0.532149
v -0.309017 0.382858 1.461870
v 0.415799 0.913247 0.721955
v 1.132571 0.309565 0.739796
v 0.812130 0.847796 -0.128708
v 0.348706 1.872748 -0.253350
v 0.133194 1.872748 -0.409929
v -0.133194 1.872748 -0.409928
v -0.348706 1.872748 -0.253350
v -0.431024 1.872748 -0.000000
v -0.348706 1.872748 0.253350
v -0.133194 1.872748 0.409928
v 0.133194 1.872748 0.409928
v 0.348706 1.872748 0.253350
v 0.431024 1.872748 -0.000000
v 0.000000 0.382858 0.000000
v 0.628588 2.041980 -0.456696
v 0.240099 1.507142 -1.231447
v -0.240099 1.962474 -0.738949
v -0.990767 1.818818 -0.603595
v -0.699896 1.953371 0.000000
v -1.031112 1.749433 0.515456
v -0.371710 1.965310 0.602589
v 0.254789 1.669826 1.072709
v 0.451795 1.971435 0.361942
v 1.128208 1.804654 0.158389
v 0.213688 3.102546 -0.155254
v 0.081622 3.102546 -0.251205
v -0.081622 3.102546 -0.251205
v -0.213688 3.102546 -0.155254
v -0.264133 3.102546 -0.000000
v -0.213688 3.102546 0.155253
v -0.081622 3.102546 0.251205
v 0.081622 3.102546 0.251205
v 0.213688 3.102546 0.155253
v 0.264133 3.102546 -0.000000
v 0.489132 3.102546 -0.274795
v 0.303956 2.755446 -0.747374
v -0.144468 3.102546 -0.444627
v -0.674100 2.772890 -0.507610
v -0.467508 3.102546 -0.000000
v -0.686813 2.998631 0.562088
v -0.144468 3.014235 0.444627
v 0.144468 2.955906 0.769375
v 0.378222 3.102546 0.274794
v 0.797049 2.936390 -0.000000
v -0.000000 4.167653 -0.000000
vt 0.626409 0.064409
vt 0.548284 0.007647
vt 0.451716 0.007647
vt 0.373591 0.064409
vt 0.343750 0.156250
vt 0.373591 0.248091
vt 0.451716 0.304853
vt 0.548284 0.304853
vt 0.626409 0.248091
vt 0.656250 0.156250
vt 0.375000 0.312500
vt 0.400000 0.312500
vt 0.425000 0.312500
vt 0.450000 0.312500
vt 0.475000 0.312500
vt 0.500000 0.312500
vt 0.525000 0.312500
vt 0.550000 0.312500
vt 0.575000 0.312500
vt 0.600000 0.312500
vt 0.625000 0.312500
vt 0.375000 0.688440
vt 0.400000 0.688440
vt 0.425000 0.688440
vt 0.450000 0.688440
vt 0.475000 0.688440
vt 0.500000 0.688440
vt 0.525000 0.688440
vt 0.550000 0.688440
vt 0.575000 0.688440
vt 0.600000 0.688440
vt 0.625000 0.688440
vt 0.626409 0.751909
vt 0.548284 0.695147
vt 0.451716 0.695147
vt 0.373591 0.751909
vt 0.343750 0.843750
vt 0.373591 0.935591
vt 0.451716 0.992353
vt 0.548284 0.992353
vt 0.626409 0.935591
vt 0.656250 0.843750
vt 0.500000 0.150000
vt 0.500000 0.843182
vt 0.626409 0.935591
vt 0.548284 0.992353
vt 0.451716 0.992353
vt 0.373591 0.935591
vt 0.343750 0.843750
vt 0.373591 0.751909
vt 0.451716 0.695147
vt 0.548284 0.695147
vt 0.626409 0.751909
vt 0.656250 0.843750
vt 0.626409 0.935591
vt 0.548284 0.992353
vt 0.451716 0.992353
vt 0.373591 0.935591
vt 0.343750 0.843750
vt 0.373591 0.751909
vt 0.451716 0.695147
vt 0.548284 0.695147
vt 0.626409 0.751909
vt 0.656250 0.843750
vt 0.626409 0.935591
vt 0.548284 0.992353
vt 0.451716 0.992353
vt 0.373591 0.935591
vt 0.343750 0.843750
vt 0.373591 0.751909
vt 0.451716 0.695147
vt 0.548284 0.695147
vt 0.626409 0.751909
vt 0.656250 0.843750
vn 0.063366 0.502277 -0.862382
vn 0.063366 0.502277 -0.862382
vn 0.063366 0.502277 -0.862382
vn 0.063366 0.502277 -0.862382
vn 0.198121 0.428924 -0.881347
vn 0.198121 0.428924 -0.881347
vn 0.198121 0.428924 -0.881347
vn 0.198121 0.428924 -0.881347
vn -0.753978 0.409716 -0.513469
vn -0.753978 0.409716 -0.513468
vn -0.753978 0.409716 -0.513468
vn -0.753978 0.409716 -0.513468
vn -0.735648 0.402206 -0.545025
vn -0.735648 0.402206 -0.545025
vn -0.735648 0.402206 -0.545025
vn -0.735648 0.402206 -0.545025
vn -0.735393 0.401943 0.545563
vn -0.735393 0.401943 0.545563
vn -0.735393 0.401943 0.545563
vn -0.735393 0.401943 0.545563
vn -0.753164 0.402191 0.520564
vn -0.753164 0.402191 0.520564
vn -0.753164 0.402191 0.520564
vn -0.753164 0.402191 0.520564
vn 0.355047 0.466584 0.810087
vn 0.355047 0.466584 0.810087
vn 0.355047 0.466584 0.810087
vn 0.355047 0.466584 0.810087
vn 0.396379 0.425129 0.813726
vn 0.396379 0.425129 0.813726
vn 0.396379 0.425129 0.813726
vn 0.396379 0.425128 0.813726
vn 0.911688 0.410868 0.003609
vn 0.911688 0.410868 0.003609
vn 0.911688 0.410868 0.003609
vn 0.911688 0.410868 0.003609
vn 0.909499 0.395748 -0.127257
vn 0.909499 0.395748 -0.127257
vn 0.909499 0.395748 -0.127257
vn 0.909499 0.395748 -0.127257
vn 0.001831 -0.784899 -0.619622
vn -0.156197 -0.980861 -0.116249
vn -0.053295 -0.997470 -0.047042
vn -0.072461 -0.996142 0.049507
vn -0.589429 -0.693277 -0.414656
vn -0.000000 -0.959028 -0.283312
vn -0.461099 -0.840748 0.283780
vn 0.069278 -0.997490 0.014644
vn 0.199513 -0.840986 0.502928
vn -0.107592 -0.991973 0.066437
vn 0.487337 -0.870456 -0.069357
vn 0.333666 -0.894572 0.297335
vn 0.333666 -0.894572 0.297335
vn 0.333666 -0.894572 0.297335
vn 0.333666 -0.894572 0.297335
vn -0.402168 -0.890329 0.213485
vn -0.402168 -0.890328 0.213485
vn -0.402168 -0.890328 0.213485
vn -0.402168 -0.890328 0.213485
vn 0.097823 -0.982319 -0.159627
vn 0.097823 -0.982319 -0.159627
vn 0.097823 -0.982319 -0.159627
vn 0.097823 -0.982319 -0.159627
vn -0.096890 -0.979366 0.177354
vn -0.096890 -0.979366 0.177354
vn -0.096890 -0.979366 0.177354
vn -0.096890 -0.979366 0.177354
vn -0.029850 -0.963704 -0.265301
vn -0.029850 -0.963704 -0.265301
vn -0.029850 -0.963704 -0.265301
vn -0.029850 -0.963704 -0.265301
vn 0.161519 -0.951247 0.262758
vn 0.161519 -0.951247 0.262758
vn 0.161519 -0.951247 0.262758
vn 0.161519 -0.951247 0.262758
vn -0.235368 -0.959316 -0.155930
vn -0.235368 -0.959316 -0.155930
vn -0.235368 -0.959316 -0.155930
vn -0.235368 -0.959316 -0.155930
vn 0.261559 -0.943453 -0.203674
vn 0.261559 -0.943453 -0.203674
vn 0.261559 -0.943453 -0.203674
vn 0.261559 -0.943453 -0.203674
vn -0.051760 -0.962729 0.265468
vn -0.051760 -0.962729 0.265468
vn -0.051760 -0.962729 0.265468
vn -0.051760 -0.962729 0.265468
vn 0.083422 -0.945642 -0.314327
vn 0.083422 -0.945642 -0.314327
vn 0.083422 -0.945642 -0.314327
vn 0.083422 -0.945642 -0.314327
vn 0.621152 0.445298 -0.644888
vn 0.621152 0.445298 -0.644888
vn 0.621152 0.445298 -0.644888
vn 0.621152 0.445298 -0.644888
vn -0.321745 0.447717 -0.834284
vn -0.321745 0.447717 -0.834284
vn -0.321745 0.447717 -0.834284
vn -0.321745 0.447717 -0.834284
vn -0.293971 0.440976 -0.848010
vn -0.293971 0.440976 -0.848010
vn -0.293971 0.440976 -0.848010
vn -0.293971 0.440976 -0.848010
vn -0.889886 0.404896 0.210149
vn -0.889886 0.404896 0.210149
vn -0.889886 0.404896 0.210149
vn -0.889886 0.404896 0.210149
vn -0.880504 0.405668 -0.245246
vn -0.880504 0.405668 -0.245246
vn -0.880504 0.405668 -0.245246
vn -0.880504 0.405668 -0.245246
vn -0.306396 0.385015 0.870566
vn -0.306396 0.385015 0.870566
vn -0.306396 0.385015 0.870566
vn -0.306396 0.385015 0.870566
vn -0.352756 0.401734 0.845088
vn -0.352756 0.401734 0.845088
vn -0.352756 0.401734 0.845088
vn -0.352756 0.401733 0.845088
vn 0.830961 0.316722 0.457374
vn 0.830961 0.316722 0.457374
vn 0.830961 0.316722 0.457374
vn 0.830961 0.316722 0.457374
vn 0.477826 0.338644 0.810557
vn 0.477826 0.338644 0.810557
vn 0.477826 0.338644 0.810557
vn 0.477826 0.338644 0.810557
vn 0.785969 0.451824 -0.422029
vn 0.785969 0.451824 -0.422029
vn 0.785969 0.451824 -0.422029
vn 0.785969 0.451824 -0.422029
vn 0.029454 -0.860361 0.508833
vn 0.029454 -0.860362 0.508833
vn 0.029454 -0.860361 0.508833
vn 0.029454 -0.860361 0.508833
vn -0.314589 -0.875109 0.367722
vn -0.314589 -0.875109 0.367722
vn -0.314589 -0.875109 0.367722
vn -0.314589 -0.875109 0.367722
vn 0.447627 -0.887786 0.107075
vn 0.447627 -0.887786 0.107075
vn 0.447627 -0.887786 0.107075
vn 0.447627 -0.887786 0.107075
vn 0.236902 -0.890995 0.387305
vn 0.236902 -0.890995 0.387305
vn 0.236902 -0.890995 0.387305
vn 0.236902 -0.890995 0.387305
vn 0.076615 -0.989162 -0.125256
vn 0.076615 -0.989162 -0.125256
vn 0.076615 -0.989162 -0.125256
vn 0.076615 -0.989162 -0.125256
vn 0.012711 -0.955522 -0.294646
vn 0.012711 -0.955522 -0.294646
vn 0.012711 -0.955522 -0.294646
vn 0.012711 -0.955522 -0.294646
vn 0.102142 -0.944612 -0.311888
vn 0.102142 -0.944612 -0.311888
vn 0.102142 -0.944613 -0.311888
vn 0.102142 -0.944612 -0.311888
vn 0.018313 -0.972957 -0.230258
vn 0.018313 -0.972957 -0.230258
vn 0.018313 -0.972957 -0.230258
vn 0.018313 -0.972957 -0.230258
vn -0.247132 -0.963534 0.102604
vn -0.247132 -0.963534 0.102604
vn -0.247132 -0.963534 0.102604
vn -0.247132 -0.963534 0.102604
vn -0.223862 -0.957230 -0.183295
vn -0.223862 -0.957230 -0.183295
vn -0.223862 -0.957230 -0.183295
vn -0.223862 -0.957230 -0.183295
vn 0.661219 0.457120 -0.594837
vn 0.661219 0.457120 -0.594837
vn 0.661219 0.457120 -0.594837
vn -0.277942 0.401912 -0.872476
vn -0.277942 0.401912 -0.872476
vn -0.277942 0.401912 -0.872476
vn -0.139577 0.397522 -0.906915
vn -0.139577 0.397522 -0.906915
vn -0.139577 0.397522 -0.906915
vn -0.910021 0.399436 0.110964
vn -0.910021 0.399436 0.110964
vn -0.910021 0.399436 0.110964
vn -0.881083 0.386734 -0.272267
vn -0.881083 0.386734 -0.272267
vn -0.881083 0.386734 -0.272267
vn 0.190508 0.332234 0.923757
vn 0.190508 0.332234 0.923757
vn 0.190508 0.332234 0.923757
vn -0.672122 0.338117 0.658733
vn -0.672122 0.338117 0.658733
vn -0.672122 0.338117 0.658733
vn 0.776517 0.401112 0.485933
vn 0.776517 0.401112 0.485933
vn 0.776517 0.401112 0.485933
vn 0.608342 0.393805 0.689085
vn 0.608342 0.393805 0.689085
vn 0.608342 0.393805 0.689085
vn 0.715993 0.463493 -0.522043
vn 0.715993 0.463493 -0.522043
vn 0.715993 0.463493 -0.522043
s off
g tree9 leaves
f 18/40/53 19/41/54 29/52/55 28/51/56
f 19/41/57 20/42/58 30/53/59 29/52/60
f 20/42/61 21/43/62 31/54/63 30/53/64
f 21/43/65 22/44/66 32/55/67 31/54/68
f 22/44/69 23/45/70 33/56/71 32/55/72
f 23/45/73 24/46/74 34/57/75 33/56/76
f 24/46/77 25/47/78 35/58/79 34/57/80
f 25/47/81 26/48/82 36/59/83 35/58/84
f 26/48/85 27/49/86 37/60/87 36/59/88
f 27/49/89 18/50/90 28/61/91 37/60/92
s 1
f 19/31/93 18/30/94 38/72/95
f 20/32/96 19/31/93 38/72/95
f 21/33/97 20/32/96 38/72/95
f 22/34/98 21/33/97 38/72/95
f 23/35/99 22/34/98 38/72/95
f 24/36/100 23/35/99 38/72/95
f 25/37/101 24/36/100 38/72/95
f 26/38/102 25/37/101 38/72/95
f 27/39/103 26/38/102 38/72/95
f 18/30/94 27/39/103 38/72/95
s off
f 28/70/104 29/69/105 40/75/106 39/74/107
f 29/69/108 30/68/109 41/76/110 40/75/111
f 30/68/112 31/67/113 42/77/114 41/76/115
f 31/67/116 32/66/117 43/78/118 42/77/119
f 32/66/120 33/65/121 44/79/122 43/78/123
f 33/65/124 34/64/125 45/80/126 44/79/127
f 34/64/128 35/63/129 46/81/130 45/80/131
f 35/63/132 36/62/133 47/82/134 46/81/135
f 36/62/136 37/71/137 48/83/138 47/82/139
f 37/71/140 28/70/141 39/74/142 48/83/143
f 39/74/144 40/75/145 50/85/146 49/84/147
f 40/75/148 41/76/149 51/86/150 50/85/151
f 41/76/152 42/77/153 52/87/154 51/86/155
f 42/77/156 43/78/157 53/88/158 52/87/159
f 43/78/160 44/79/161 54/89/162 53/88/163
f 44/79/164 45/80/165 55/90/166 54/89/167
f 45/80/168 46/81/169 56/91/170 55/90/171
f 46/81/172 47/82/173 57/92/174 56/91/175
f 47/82/176 48/83/177 58/93/178 57/92/179
f 48/83/180 39/74/181 49/84/182 58/93/183
f 49/84/184 50/85/185 60/95/186 59/94/187
f 50/85/188 51/86/189 61/96/190 60/95/191
f 51/86/192 52/87/193 62/97/194 61/96/195
f 52/87/196 53/88/197 63/98/198 62/97/199
f 53/88/200 54/89/201 64/99/202 63/98/203
f 54/89/204 55/90/205 65/100/206 64/99/207
f 55/90/208 56/91/209 66/101/210 65/100/211
f 56/91/212 57/92/213 67/102/214 66/101/215
f 57/92/216 58/93/217 68/103/218 67/102/219
f 58/93/220 49/84/221 59/94/222 68/103/223
f 59/94/224 60/95/225 69/73/226
f 60/95/227 61/96/228 69/73/229
f 61/96/230 62/97/231 69/73/232
f 62/97/233 63/98/234 69/73/235
f 63/98/236 64/99/237 69/73/238
f 64/99/239 65/100/240 69/73/241
f 65/100/242 66/101/243 69/73/244
f 66/101/245 67/102/246 69/73/247
f 67/102/248 68/103/249 69/73/250
f 68/103/251 59/94/252 69/73/253
