# This file uses centimeters as units for non-parametric coordinates.

mtllib HoleNoSides.mtl
g default
v 0.221945 -0.500000 -0.305481
v 0.305481 -0.500000 -0.221945
v 0.305481 0.500000 -0.221945
v 0.221945 0.500000 -0.305481
v -0.116683 -0.500000 0.359114
v -0.221945 -0.500000 0.305481
v -0.221945 0.500000 0.305481
v -0.116683 0.500000 0.359114
v 0.359115 -0.500000 -0.116683
v 0.359115 0.500000 -0.116683
v 0.000000 -0.500000 0.377595
v 0.000000 0.500000 0.377595
v 0.377595 -0.500000 0.000000
v 0.377595 0.500000 0.000000
v 0.359114 -0.500000 0.116683
v 0.359114 0.500000 0.116683
v 0.116683 -0.500000 0.359114
v 0.116683 0.500000 0.359114
v 0.500000 0.500000 -0.500000
v 0.500000 0.500000 0.500000
v -0.500000 0.500000 0.500000
v 0.305481 -0.500000 0.221945
v 0.305481 0.500000 0.221945
v 0.221945 -0.500000 0.305481
v 0.221945 0.500000 0.305481
v -0.305481 0.500000 0.221945
v -0.359114 0.500000 0.116683
v -0.377595 0.500000 0.000000
v -0.359114 0.500000 -0.116683
v -0.305481 0.500000 -0.221945
v -0.221945 0.500000 -0.305481
v -0.116683 0.500000 -0.359114
v 0.000000 0.500000 -0.377595
v -0.500000 0.500000 -0.500000
v 0.116683 0.500000 -0.359114
v -0.305481 -0.500000 0.221945
v -0.359114 -0.500000 0.116683
v 0.116683 -0.500000 -0.359114
v -0.377595 -0.500000 0.000000
v 0.000000 -0.500000 -0.377595
v -0.359114 -0.500000 -0.116683
v -0.116683 -0.500000 -0.359114
v -0.305481 -0.500000 -0.221945
v -0.221945 -0.500000 -0.305481
vt 0.400000 0.384444
vt 0.387500 0.384444
vt 0.387500 0.616496
vt 0.400000 0.616496
vt 0.537500 0.384444
vt 0.525000 0.384444
vt 0.525000 0.616496
vt 0.537500 0.616496
vt 0.375000 0.384444
vt 0.375000 0.616496
vt 0.550000 0.384444
vt 0.550000 0.616496
vt 0.625000 0.384444
vt 0.612500 0.384444
vt 0.612500 0.616496
vt 0.625000 0.616496
vt 0.600000 0.384444
vt 0.600000 0.616496
vt 0.562500 0.384444
vt 0.562500 0.616496
vt 0.625000 0.250000
vt 0.375000 0.250000
vt 0.587500 0.384444
vt 0.587500 0.616496
vt 0.575000 0.384444
vt 0.575000 0.616496
vt 0.500000 0.280601
vt 0.470829 0.285221
vt 0.444514 0.298630
vt 0.423630 0.319514
vt 0.410221 0.345829
vt 0.405601 0.375000
vt 0.410221 0.404171
vt 0.423630 0.430486
vt 0.444514 0.451370
vt 0.470829 0.464779
vt 0.500000 0.469399
vt 0.625000 0.500000
vt 0.375000 0.500000
vt 0.529171 0.464779
vt 0.555486 0.451370
vt 0.576370 0.430486
vt 0.589779 0.404171
vt 0.594399 0.375000
vt 0.589779 0.345829
vt 0.576370 0.319514
vt 0.555486 0.298630
vt 0.529171 0.285221
vt 0.512500 0.384444
vt 0.512500 0.616496
vt 0.500000 0.384444
vt 0.500000 0.616496
vt 0.412500 0.384444
vt 0.412500 0.616496
vt 0.487500 0.384444
vt 0.487500 0.616496
vt 0.425000 0.384444
vt 0.425000 0.616496
vt 0.475000 0.384444
vt 0.475000 0.616496
vt 0.437500 0.384444
vt 0.437500 0.616496
vt 0.462500 0.384444
vt 0.462500 0.616496
vt 0.450000 0.384444
vt 0.450000 0.616496
vn -0.587785 0.000000 0.809017
vn -0.809017 0.000000 0.587785
vn -0.809017 0.000000 0.587785
vn -0.587785 0.000000 0.809017
vn 0.309017 0.000000 -0.951057
vn 0.587785 0.000000 -0.809017
vn 0.587785 0.000000 -0.809017
vn 0.309017 0.000000 -0.951057
vn -0.809017 0.000000 0.587785
vn -0.951057 0.000000 0.309016
vn -0.951057 0.000000 0.309016
vn -0.809017 0.000000 0.587785
vn 0.000000 0.000000 -1.000000
vn 0.309017 0.000000 -0.951057
vn 0.309017 0.000000 -0.951057
vn 0.000000 0.000000 -1.000000
vn -0.951057 0.000000 0.309016
vn -1.000000 0.000000 -0.000001
vn -1.000000 0.000000 -0.000001
vn -0.951057 0.000000 0.309016
vn -1.000000 0.000000 -0.000001
vn -0.951057 0.000000 -0.309017
vn -0.951057 0.000000 -0.309017
vn -1.000000 0.000000 -0.000001
vn -0.309017 0.000000 -0.951056
vn 0.000000 0.000000 -1.000000
vn 0.000000 0.000000 -1.000000
vn -0.309017 0.000000 -0.951056
vn -0.951057 0.000000 -0.309017
vn -0.809017 0.000000 -0.587785
vn -0.809017 0.000000 -0.587785
vn -0.951057 0.000000 -0.309017
vn -0.587785 0.000000 -0.809017
vn -0.309017 0.000000 -0.951056
vn -0.309017 0.000000 -0.951056
vn -0.587785 0.000000 -0.809017
vn -0.809017 0.000000 -0.587785
vn -0.587785 0.000000 -0.809017
vn -0.587785 0.000000 -0.809017
vn -0.809017 0.000000 -0.587785
vn 0.000000 1.000000 0.000000
vn 0.000000 1.000000 0.000000
vn 0.000000 1.000000 0.000000
vn 0.000000 1.000000 0.000000
vn 0.000000 1.000000 0.000000
vn 0.000000 1.000000 0.000000
vn 0.000000 1.000000 0.000000
vn 0.000000 1.000000 0.000000
vn 0.000000 1.000000 0.000000
vn 0.000000 1.000000 0.000000
vn 0.000000 1.000000 0.000000
vn 0.000000 1.000000 0.000000
vn 0.000000 1.000000 0.000000
vn 0.000000 1.000000 0.000000
vn 0.000000 1.000000 0.000000
vn 0.000000 1.000000 0.000000
vn 0.000000 1.000000 0.000000
vn 0.000000 1.000000 0.000000
vn 0.000000 1.000000 0.000000
vn 0.000000 1.000000 0.000000
vn 0.000000 1.000000 0.000000
vn 0.000000 1.000000 0.000000
vn 0.000000 1.000000 0.000000
vn 0.000000 1.000000 0.000000
vn 0.000000 1.000000 0.000000
vn 0.000000 1.000000 0.000000
vn 0.000000 1.000000 0.000000
vn 0.000000 1.000000 0.000000
vn 0.587785 0.000000 -0.809017
vn 0.809017 0.000000 -0.587785
vn 0.809017 0.000000 -0.587785
vn 0.587785 0.000000 -0.809017
vn 0.809017 0.000000 -0.587785
vn 0.951057 0.000000 -0.309017
vn 0.951057 0.000000 -0.309017
vn 0.809017 0.000000 -0.587785
vn -0.309017 0.000000 0.951057
vn -0.587785 0.000000 0.809017
vn -0.587785 0.000000 0.809017
vn -0.309017 0.000000 0.951057
vn 0.951057 0.000000 -0.309017
vn 1.000000 0.000000 0.000000
vn 1.000000 0.000000 0.000000
vn 0.951057 0.000000 -0.309017
vn 0.000000 0.000000 1.000000
vn -0.309017 0.000000 0.951057
vn -0.309017 0.000000 0.951057
vn 0.000000 0.000000 1.000000
vn 1.000000 0.000000 0.000000
vn 0.951057 0.000000 0.309017
vn 0.951057 0.000000 0.309017
vn 1.000000 0.000000 0.000000
vn 0.309017 0.000000 0.951056
vn 0.000000 0.000000 1.000000
vn 0.000000 0.000000 1.000000
vn 0.309017 0.000000 0.951056
vn 0.951057 0.000000 0.309017
vn 0.809017 0.000000 0.587785
vn 0.809017 0.000000 0.587785
vn 0.951057 0.000000 0.309017
vn 0.587785 0.000000 0.809017
vn 0.309017 0.000000 0.951056
vn 0.309017 0.000000 0.951056
vn 0.587785 0.000000 0.809017
vn 0.809017 0.000000 0.587785
vn 0.587785 0.000000 0.809017
vn 0.587785 0.000000 0.809017
vn 0.809017 0.000000 0.587785
s off
g testhole__2_:pCube7
usemtl initialShadingGroup
f 1/1/1 2/2/2 3/3/3 4/4/4
f 5/5/5 6/6/6 7/7/7 8/8/8
f 2/2/9 9/9/10 10/10/11 3/3/12
f 11/11/13 5/5/14 8/8/15 12/12/16
f 9/13/17 13/14/18 14/15/19 10/16/20
f 13/14/21 15/17/22 16/18/23 14/15/24
f 17/19/25 11/11/26 12/12/27 18/20/28
f 15/17/29 22/23/30 23/24/31 16/18/32
f 24/25/33 17/19/34 18/20/35 25/26/36
f 22/23/37 24/25/38 25/26/39 23/24/40
f 21/22/41 12/27/42 8/28/43 7/29/44 26/30/45 27/31/46 28/32/47 29/33/48 30/34/49 31/35/50 32/36/51 33/37/52 19/38/53 34/39/54
f 21/22/55 20/21/56 19/38/57 33/37/58 35/40/59 4/41/60 3/42/61 10/43/62 14/44/63 16/45/64 23/46/65 25/47/66 18/48/67 12/27/68
f 6/6/69 36/49/70 26/50/71 7/7/72
f 36/49/73 37/51/74 27/52/75 26/50/76
f 38/53/77 1/1/78 4/4/79 35/54/80
f 37/51/81 39/55/82 28/56/83 27/52/84
f 40/57/85 38/53/86 35/54/87 33/58/88
f 39/55/89 41/59/90 29/60/91 28/56/92
f 42/61/93 40/57/94 33/58/95 32/62/96
f 41/59/97 43/63/98 30/64/99 29/60/100
f 44/65/101 42/61/102 32/62/103 31/66/104
f 43/63/105 44/65/106 31/66/107 30/64/108
