# This file uses centimeters as units for non-parametric coordinates.

g default
v 0.500000 0.000000 -0.866025
v -0.500000 0.000000 -0.866026
v -1.000000 0.000000 0.000000
v -0.500000 0.000000 0.866025
v 0.500000 0.000000 0.866025
v 1.000000 0.000000 0.000000
v 0.468368 0.150599 -0.811236
v -0.468367 0.150599 -0.811237
v -0.936735 0.150599 0.000000
v -0.468368 0.150599 0.811236
v 0.468368 0.150599 0.811237
v 0.936735 0.150599 0.000000
v 0.000000 0.000000 0.000000
v 0.423709 0.150599 -0.733884
v -0.423708 0.150599 -0.733884
v -0.847417 0.150599 0.000000
v -0.423708 0.150599 0.733884
v 0.423708 0.150599 0.733884
v 0.847417 0.150599 0.000000
v 0.423709 0.158426 -0.733884
v -0.423708 0.158426 -0.733884
v -0.847417 0.158426 0.000000
v -0.423708 0.158426 0.733884
v 0.423708 0.158426 0.733884
v 0.847417 0.158426 0.000000
v 0.468354 0.158426 -0.811212
v -0.468354 0.158426 -0.811212
v -0.936707 0.158426 0.000000
v -0.468354 0.158426 0.811212
v 0.468354 0.158426 0.811212
v 0.936707 0.158426 0.000000
v 0.457988 0.223264 -0.793258
v -0.457987 0.223264 -0.793258
v -0.915975 0.223264 0.000000
v -0.457988 0.223264 0.793258
v 0.457988 0.223264 0.793258
v 0.915975 0.223264 0.000000
v 0.293870 0.223264 -0.506542
v 0.573909 0.223264 0.006778
v 0.274331 0.223264 0.488141
v -0.276676 0.223264 0.483728
v -0.568255 0.223264 0.006164
v -0.296577 0.223264 -0.501484
vt 0.375000 0.312500
vt 0.416667 0.312500
vt 0.416667 0.688440
vt 0.375000 0.688440
vt 0.458333 0.312500
vt 0.458333 0.688440
vt 0.500000 0.312500
vt 0.500000 0.688440
vt 0.541667 0.312500
vt 0.541667 0.688440
vt 0.583333 0.312500
vt 0.583333 0.688440
vt 0.625000 0.312500
vt 0.625000 0.688440
vt 0.421875 0.020934
vt 0.578125 0.020934
vt 0.500000 0.150000
vt 0.343750 0.156250
vt 0.421875 0.291566
vt 0.578125 0.291566
vt 0.656250 0.156250
vt 0.000000 0.000000
vt 1.000000 0.000000
vt 1.000000 1.000000
vt 0.000000 1.000000
vt 0.000000 0.000000
vt 1.000000 0.000000
vt 1.000000 1.000000
vt 0.000000 1.000000
vt 0.000000 0.000000
vt 1.000000 0.000000
vt 1.000000 1.000000
vt 0.000000 1.000000
vt 0.000000 0.000000
vt 1.000000 0.000000
vt 1.000000 1.000000
vt 0.000000 1.000000
vt 0.000000 0.000000
vt 1.000000 0.000000
vt 1.000000 1.000000
vt 0.000000 1.000000
vt 0.000000 0.000000
vt 1.000000 0.000000
vt 1.000000 1.000000
vt 0.000000 1.000000
vt 0.000000 0.000000
vt 1.000000 0.000000
vt 1.000000 1.000000
vt 0.000000 1.000000
vt 0.000000 0.000000
vt 1.000000 0.000000
vt 1.000000 1.000000
vt 0.000000 1.000000
vt 0.000000 0.000000
vt 1.000000 0.000000
vt 1.000000 1.000000
vt 0.000000 1.000000
vt 0.000000 0.000000
vt 1.000000 0.000000
vt 1.000000 1.000000
vt 0.000000 1.000000
vt 0.000000 0.000000
vt 1.000000 0.000000
vt 1.000000 1.000000
vt 0.000000 1.000000
vt 0.000000 0.000000
vt 1.000000 0.000000
vt 1.000000 1.000000
vt 0.000000 1.000000
vt 0.000000 0.000000
vt 1.000000 0.000000
vt 1.000000 1.000000
vt 0.000000 1.000000
vt 0.000000 0.000000
vt 1.000000 0.000000
vt 1.000000 1.000000
vt 0.000000 1.000000
vt 0.000000 0.000000
vt 1.000000 0.000000
vt 1.000000 1.000000
vt 0.000000 1.000000
vt 0.000000 0.000000
vt 1.000000 0.000000
vt 1.000000 1.000000
vt 0.000000 1.000000
vt 0.000000 0.000000
vt 1.000000 0.000000
vt 1.000000 1.000000
vt 0.000000 1.000000
vt 0.000000 0.000000
vt 1.000000 0.000000
vt 1.000000 1.000000
vt 0.000000 1.000000
vt 0.000000 0.000000
vt 1.000000 0.000000
vt 1.000000 1.000000
vt 0.000000 1.000000
vt 0.000000 0.000000
vt 1.000000 0.000000
vt 1.000000 1.000000
vt 0.000000 1.000000
vt 0.000000 0.000000
vt 1.000000 0.000000
vt 1.000000 1.000000
vt 0.000000 1.000000
vt 0.000000 0.000000
vt 1.000000 0.000000
vt 1.000000 1.000000
vt 0.000000 1.000000
vt 0.000000 0.000000
vt 1.000000 0.000000
vt 1.000000 1.000000
vt 0.000000 1.000000
vt 0.000000 0.000000
vt 1.000000 0.000000
vt 1.000000 1.000000
vt 0.000000 1.000000
vt 0.000000 1.000000
vt 0.000000 1.000000
vt 0.000000 1.000000
vt 0.000000 1.000000
vt 0.000000 1.000000
vt 0.000000 1.000000
vn 0.000000 0.341885 -0.939742
vn 0.000000 0.341885 -0.939742
vn 0.000000 0.341885 -0.939742
vn 0.000000 0.341885 -0.939742
vn -0.813840 0.341885 -0.469871
vn -0.813840 0.341885 -0.469871
vn -0.813840 0.341884 -0.469871
vn -0.813840 0.341885 -0.469871
vn -0.813840 0.341885 0.469871
vn -0.813840 0.341885 0.469871
vn -0.813841 0.341885 0.469871
vn -0.813840 0.341885 0.469871
vn 0.000000 0.341885 0.939742
vn 0.000000 0.341885 0.939742
vn 0.000000 0.341885 0.939742
vn 0.000000 0.341885 0.939742
vn 0.813840 0.341885 0.469871
vn 0.813840 0.341885 0.469871
vn 0.813840 0.341885 0.469871
vn 0.813840 0.341885 0.469871
vn 0.813840 0.341885 -0.469871
vn 0.813840 0.341885 -0.469871
vn 0.813841 0.341885 -0.469871
vn 0.813840 0.341885 -0.469871
vn 0.000000 -1.000000 0.000000
vn 0.000000 -1.000000 0.000000
vn 0.000000 -1.000000 0.000000
vn 0.000000 -1.000000 0.000000
vn 0.000000 -1.000000 0.000000
vn 0.000000 -1.000000 0.000000
vn 0.000000 -1.000000 0.000000
vn 0.000000 -1.000000 0.000000
vn 0.000000 -1.000000 0.000000
vn 0.000000 -1.000000 0.000000
vn 0.000000 -1.000000 0.000000
vn 0.000000 -1.000000 0.000000
vn 0.000000 -1.000000 0.000000
vn 0.000000 -1.000000 0.000000
vn 0.000000 -1.000000 0.000000
vn 0.000000 -1.000000 0.000000
vn 0.000000 -1.000000 0.000000
vn 0.000000 -1.000000 0.000000
vn 0.000000 1.000000 0.000000
vn 0.000000 1.000000 0.000000
vn 0.000000 1.000000 0.000000
vn 0.000000 1.000000 0.000000
vn 0.000000 1.000000 0.000000
vn 0.000000 1.000000 0.000000
vn 0.000000 1.000000 0.000000
vn 0.000000 1.000000 0.000000
vn 0.000000 1.000000 0.000000
vn 0.000000 1.000000 0.000000
vn 0.000000 1.000000 0.000000
vn 0.000000 1.000000 0.000000
vn 0.000000 1.000000 0.000000
vn 0.000000 1.000000 0.000000
vn 0.000000 1.000000 0.000000
vn 0.000000 1.000000 0.000000
vn 0.000000 1.000000 0.000000
vn 0.000000 1.000000 0.000000
vn 0.000000 1.000000 0.000000
vn 0.000000 1.000000 0.000000
vn 0.000000 1.000000 0.000000
vn 0.000000 1.000000 0.000000
vn 0.000000 1.000000 0.000000
vn 0.000000 1.000000 0.000000
vn 0.000000 0.000000 -1.000000
vn 0.000000 0.000000 -1.000000
vn 0.000000 0.000000 -1.000000
vn 0.000000 0.000000 -1.000000
vn -0.866025 0.000000 -0.500000
vn -0.866025 0.000000 -0.500000
vn -0.866025 0.000000 -0.500000
vn -0.866025 0.000000 -0.500000
vn -0.866026 0.000000 0.500000
vn -0.866026 0.000000 0.500000
vn -0.866026 0.000000 0.500000
vn -0.866026 0.000000 0.500000
vn 0.000000 0.000000 1.000000
vn 0.000000 0.000000 1.000000
vn 0.000000 0.000000 1.000000
vn 0.000000 0.000000 1.000000
vn 0.866025 0.000000 0.500000
vn 0.866025 0.000000 0.500000
vn 0.866025 0.000000 0.500000
vn 0.866025 0.000000 0.500000
vn 0.866026 0.000000 -0.500000
vn 0.866026 0.000000 -0.500000
vn 0.866026 0.000000 -0.500000
vn 0.866026 0.000000 -0.500000
vn 0.000000 -1.000000 0.000000
vn 0.000000 -1.000000 0.000000
vn 0.000000 -1.000000 0.000000
vn 0.000000 -1.000000 0.000000
vn 0.000000 -1.000000 0.000000
vn 0.000000 -1.000000 0.000000
vn 0.000000 -1.000000 0.000000
vn 0.000000 -1.000000 0.000000
vn 0.000000 -1.000000 0.000000
vn 0.000000 -1.000000 0.000000
vn 0.000000 -1.000000 0.000000
vn 0.000000 -1.000000 0.000000
vn 0.000000 -1.000000 0.000000
vn 0.000000 -1.000000 0.000000
vn 0.000000 -1.000000 0.000000
vn 0.000000 -1.000000 0.000000
vn 0.000000 -1.000000 0.000000
vn 0.000000 -1.000000 0.000000
vn 0.000000 -1.000000 0.000000
vn 0.000000 -1.000000 0.000000
vn 0.000000 -1.000000 0.000000
vn 0.000000 -1.000000 0.000000
vn 0.000000 -1.000000 0.000000
vn 0.000000 -1.000000 0.000000
vn 0.000000 0.266870 -0.963733
vn 0.000000 0.266870 -0.963733
vn 0.000000 0.266870 -0.963733
vn 0.000000 0.266870 -0.963733
vn -0.834617 0.266869 -0.481867
vn -0.834617 0.266869 -0.481867
vn -0.834617 0.266869 -0.481867
vn -0.834617 0.266869 -0.481867
vn -0.834617 0.266870 0.481866
vn -0.834617 0.266870 0.481866
vn -0.834617 0.266870 0.481866
vn -0.834617 0.266870 0.481866
vn 0.000000 0.266870 0.963733
vn 0.000000 0.266870 0.963733
vn 0.000000 0.266870 0.963733
vn 0.000000 0.266870 0.963733
vn 0.834617 0.266870 0.481866
vn 0.834617 0.266870 0.481866
vn 0.834617 0.266870 0.481866
vn 0.834617 0.266870 0.481866
vn 0.834617 0.266871 -0.481866
vn 0.834617 0.266871 -0.481866
vn 0.834617 0.266871 -0.481866
vn 0.834617 0.266871 -0.481866
vn 0.000000 1.000000 0.000000
vn 0.000000 1.000000 0.000000
vn 0.000000 1.000000 0.000000
vn 0.000000 1.000000 0.000000
vn 0.000000 1.000000 0.000000
vn 0.000000 1.000000 0.000000
vn 0.000000 1.000000 0.000000
vn 0.000000 1.000000 0.000000
vn 0.000000 1.000000 0.000000
vn 0.000000 1.000000 0.000000
vn 0.000000 1.000000 0.000000
vn 0.000000 1.000000 0.000000
s off
g outside platform_hex
f 1/1/1 2/2/2 8/3/3 7/4/4
f 2/2/5 3/5/6 9/6/7 8/3/8
f 3/5/9 4/7/10 10/8/11 9/6/12
f 4/7/13 5/9/14 11/10/15 10/8/16
f 5/9/17 6/11/18 12/12/19 11/10/20
f 6/11/21 1/13/22 7/14/23 12/12/24
f 2/15/25 1/16/26 13/17/27
f 3/18/28 2/15/29 13/17/30
f 4/19/31 3/18/32 13/17/33
f 5/20/34 4/19/35 13/17/36
f 6/21/37 5/20/38 13/17/39
f 1/16/40 6/21/41 13/17/42
f 7/22/43 8/23/44 15/24/45 14/25/46
f 8/26/47 9/27/48 16/28/49 15/29/50
f 9/30/51 10/31/52 17/32/53 16/33/54
f 10/34/55 11/35/56 18/36/57 17/37/58
f 11/38/59 12/39/60 19/40/61 18/41/62
f 12/42/63 7/43/64 14/44/65 19/45/66
f 14/46/67 15/47/68 21/48/69 20/49/70
f 15/50/71 16/51/72 22/52/73 21/53/74
f 16/54/75 17/55/76 23/56/77 22/57/78
f 17/58/79 18/59/80 24/60/81 23/61/82
f 18/62/83 19/63/84 25/64/85 24/65/86
f 19/66/87 14/67/88 20/68/89 25/69/90
f 20/70/91 21/71/92 27/72/93 26/73/94
f 21/74/95 22/75/96 28/76/97 27/77/98
f 22/78/99 23/79/100 29/80/101 28/81/102
f 23/82/103 24/83/104 30/84/105 29/85/106
f 24/86/107 25/87/108 31/88/109 30/89/110
f 25/90/111 20/91/112 26/92/113 31/93/114
f 26/94/115 27/95/116 33/96/117 32/97/118
f 27/98/119 28/99/120 34/100/121 33/101/122
f 28/102/123 29/103/124 35/104/125 34/105/126
f 29/106/127 30/107/128 36/108/129 35/109/130
f 30/110/131 31/111/132 37/112/133 36/113/134
f 31/114/135 26/115/136 32/116/137 37/117/138
s 1
f 36/113/139 40/118/140 41/119/141 35/109/142
f 32/97/143 38/120/144 39/121/145 37/117/146
f 33/101/147 34/105/148 42/122/149 43/123/150
f 35/109/142 41/119/141 42/122/149 34/105/148
f 37/117/146 39/121/145 40/118/140 36/113/139
f 33/101/147 43/123/150 38/120/144 32/97/143
g default
v 0.263206 0.127576 -0.454143
v 0.513740 0.127576 0.005095
v 0.245725 0.127576 0.435742
v -0.247228 0.127576 0.431793
v -0.508086 0.127576 0.004545
v -0.265032 0.127576 -0.449618
v 0.191967 0.055350 -0.332407
v 0.373955 0.055350 0.001184
v 0.179269 0.055350 0.314006
v -0.178813 0.055350 0.311138
v -0.368301 0.055350 0.000784
v -0.191746 0.055350 -0.329120
v 0.001975 0.013025 -0.007536
v 0.573909 0.223264 0.006778
v 0.293870 0.223264 -0.506542
v 0.274331 0.223264 0.488141
v -0.276676 0.223264 0.483728
v -0.568255 0.223264 0.006164
v -0.296577 0.223264 -0.501484
vt 0.000000 0.000000
vt 1.000000 0.000000
vt 1.000000 1.000000
vt 0.000000 1.000000
vt 0.000000 0.000000
vt 1.000000 0.000000
vt 1.000000 1.000000
vt 0.000000 1.000000
vt 0.000000 0.000000
vt 1.000000 0.000000
vt 1.000000 1.000000
vt 0.000000 1.000000
vt 0.000000 0.000000
vt 1.000000 0.000000
vt 1.000000 1.000000
vt 0.000000 1.000000
vt 0.000000 0.000000
vt 1.000000 0.000000
vt 1.000000 1.000000
vt 0.000000 1.000000
vt 0.000000 0.000000
vt 1.000000 0.000000
vt 1.000000 1.000000
vt 0.000000 1.000000
vt 0.000000 0.000000
vt 1.000000 0.000000
vt 1.000000 1.000000
vt 0.000000 1.000000
vt 0.000000 0.000000
vt 1.000000 0.000000
vt 1.000000 1.000000
vt 0.000000 1.000000
vt 0.000000 0.000000
vt 1.000000 0.000000
vt 1.000000 1.000000
vt 0.000000 1.000000
vt 0.000000 0.000000
vt 1.000000 0.000000
vt 1.000000 1.000000
vt 0.000000 1.000000
vt 0.000000 0.000000
vt 1.000000 0.000000
vt 1.000000 1.000000
vt 0.000000 1.000000
vt 0.000000 0.000000
vt 1.000000 0.000000
vt 1.000000 1.000000
vt 0.000000 1.000000
vt 0.000000 0.000000
vt 1.000000 0.000000
vt 0.500000 1.000000
vt 0.000000 0.000000
vt 1.000000 0.000000
vt 0.500000 1.000000
vt 0.000000 0.000000
vt 1.000000 0.000000
vt 0.500000 1.000000
vt 0.000000 0.000000
vt 1.000000 0.000000
vt 0.500000 1.000000
vt 0.000000 0.000000
vt 1.000000 0.000000
vt 0.500000 1.000000
vt 0.000000 0.000000
vt 1.000000 0.000000
vt 0.500000 1.000000
vn -0.771280 0.477581 0.420766
vn -0.771280 0.477581 0.420766
vn -0.771280 0.477581 0.420766
vn -0.771280 0.477581 0.420766
vn -0.746059 0.477294 -0.464312
vn -0.746059 0.477294 -0.464312
vn -0.746059 0.477294 -0.464312
vn -0.746059 0.477294 -0.464312
vn 0.007033 0.478679 -0.877962
vn 0.007033 0.478679 -0.877962
vn 0.007033 0.478679 -0.877962
vn 0.007033 0.478679 -0.877962
vn 0.749265 0.478880 -0.457467
vn 0.749265 0.478880 -0.457467
vn 0.749265 0.478880 -0.457467
vn 0.749265 0.478880 -0.457467
vn 0.773708 0.479506 0.414065
vn 0.773708 0.479506 0.414065
vn 0.773708 0.479506 0.414065
vn 0.773708 0.479506 0.414065
vn 0.007522 0.478440 0.878088
vn 0.007522 0.478440 0.878088
vn 0.007522 0.478440 0.878088
vn 0.007522 0.478440 0.878088
vn -0.450388 0.858358 0.245706
vn -0.450388 0.858358 0.245706
vn -0.450388 0.858358 0.245706
vn -0.450388 0.858358 0.245706
vn -0.435833 0.858183 -0.271242
vn -0.435833 0.858183 -0.271242
vn -0.435833 0.858183 -0.271242
vn -0.435833 0.858183 -0.271242
vn 0.004101 0.859030 -0.511909
vn 0.004101 0.859030 -0.511909
vn 0.004101 0.859030 -0.511909
vn 0.004101 0.859030 -0.511909
vn 0.436749 0.859152 -0.266659
vn 0.436749 0.859152 -0.266659
vn 0.436749 0.859152 -0.266659
vn 0.436749 0.859152 -0.266659
vn 0.450608 0.859534 0.241152
vn 0.450608 0.859534 0.241152
vn 0.450608 0.859534 0.241152
vn 0.450608 0.859534 0.241152
vn 0.004387 0.858884 0.512151
vn 0.004387 0.858884 0.512151
vn 0.004387 0.858884 0.512151
vn 0.004387 0.858884 0.512151
vn -0.114276 0.991491 0.062342
vn -0.114276 0.991491 0.062342
vn -0.114276 0.991491 0.062342
vn -0.111181 0.991388 -0.069194
vn -0.111181 0.991389 -0.069194
vn -0.111181 0.991388 -0.069194
vn 0.001050 0.991372 -0.131074
vn 0.001050 0.991372 -0.131074
vn 0.001050 0.991372 -0.131074
vn 0.111787 0.991386 -0.068252
vn 0.111787 0.991386 -0.068252
vn 0.111787 0.991386 -0.068252
vn 0.114714 0.991500 0.061391
vn 0.114713 0.991500 0.061391
vn 0.114714 0.991500 0.061391
vn 0.001112 0.991536 0.129829
vn 0.001112 0.991536 0.129829
vn 0.001112 0.991536 0.129829
s off
g platform_hex inside
f 57/124/151 58/125/152 44/126/153 45/127/154
f 59/128/155 57/129/156 45/130/157 46/131/158
f 60/132/159 59/133/160 46/134/161 47/135/162
f 61/136/163 60/137/164 47/138/165 48/139/166
f 62/140/167 61/141/168 48/142/169 49/143/170
f 58/144/171 62/145/172 49/146/173 44/147/174
f 45/148/175 44/149/176 50/150/177 51/151/178
f 46/152/179 45/153/180 51/154/181 52/155/182
f 47/156/183 46/157/184 52/158/185 53/159/186
f 48/160/187 47/161/188 53/162/189 54/163/190
f 49/164/191 48/165/192 54/166/193 55/167/194
f 44/168/195 49/169/196 55/170/197 50/171/198
f 51/172/199 50/173/200 56/174/201
f 52/175/202 51/176/203 56/177/204
f 53/178/205 52/179/206 56/180/207
f 54/181/208 53/182/209 56/183/210
f 55/184/211 54/185/212 56/186/213
f 50/187/214 55/188/215 56/189/216
