# This file uses centimeters as units for non-parametric coordinates.

g default
v 0.500000 0.000000 -0.866025
v -0.500000 0.000000 -0.866026
v -1.000000 0.000000 -0.000000
v -0.500000 0.000000 0.866025
v 0.500000 0.000000 0.866025
v 1.000000 0.000000 0.000000
v 0.468368 0.150599 -0.811236
v -0.468367 0.150599 -0.811237
v -0.936735 0.150599 -0.000000
v -0.468368 0.150599 0.811236
v 0.468368 0.150599 0.811237
v 0.936735 0.150599 -0.000000
v 0.000000 0.000000 0.000000
v 0.423709 0.150599 -0.733884
v -0.423708 0.150599 -0.733884
v -0.847417 0.150599 -0.000000
v -0.423708 0.150599 0.733884
v 0.423708 0.150599 0.733884
v 0.847417 0.150599 -0.000000
v 0.423709 0.158426 -0.733884
v -0.423708 0.158426 -0.733884
v -0.847417 0.158426 -0.000000
v -0.423708 0.158426 0.733884
v 0.423708 0.158426 0.733884
v 0.847417 0.158426 -0.000000
v 0.468354 0.158426 -0.811212
v -0.468354 0.158426 -0.811212
v -0.936707 0.158426 -0.000000
v -0.468354 0.158426 0.811212
v 0.468354 0.158426 0.811212
v 0.936707 0.158426 -0.000000
v 0.457988 0.223264 -0.793258
v -0.457987 0.223264 -0.793258
v -0.915975 0.223264 -0.000000
v -0.457988 0.223264 0.793258
v 0.457988 0.223264 0.793258
v 0.915975 0.223264 -0.000000
v 0.000000 0.223264 -0.000000
vt 0.578125 0.020934
vt 0.421875 0.020934
vt 0.343750 0.156250
vt 0.421875 0.291566
vt 0.578125 0.291566
vt 0.656250 0.156250
vt 0.375000 0.312500
vt 0.416667 0.312500
vt 0.458333 0.312500
vt 0.500000 0.312500
vt 0.541667 0.312500
vt 0.583333 0.312500
vt 0.625000 0.312500
vt 0.375000 0.688440
vt 0.416667 0.688440
vt 0.458333 0.688440
vt 0.500000 0.688440
vt 0.541667 0.688440
vt 0.583333 0.688440
vt 0.625000 0.688440
vt 0.500000 0.150000
vt 0.000000 0.000000
vt 1.000000 0.000000
vt 1.000000 1.000000
vt 0.000000 1.000000
vt 0.000000 0.000000
vt 1.000000 0.000000
vt 1.000000 1.000000
vt 0.000000 1.000000
vt 0.000000 0.000000
vt 1.000000 0.000000
vt 1.000000 1.000000
vt 0.000000 1.000000
vt 0.000000 0.000000
vt 1.000000 0.000000
vt 1.000000 1.000000
vt 0.000000 1.000000
vt 0.000000 0.000000
vt 1.000000 0.000000
vt 1.000000 1.000000
vt 0.000000 1.000000
vt 0.000000 0.000000
vt 1.000000 0.000000
vt 1.000000 1.000000
vt 0.000000 1.000000
vt 0.000000 0.000000
vt 1.000000 0.000000
vt 1.000000 1.000000
vt 0.000000 1.000000
vt 0.000000 0.000000
vt 1.000000 0.000000
vt 1.000000 1.000000
vt 0.000000 1.000000
vt 0.000000 0.000000
vt 1.000000 0.000000
vt 1.000000 1.000000
vt 0.000000 1.000000
vt 0.000000 0.000000
vt 1.000000 0.000000
vt 1.000000 1.000000
vt 0.000000 1.000000
vt 0.000000 0.000000
vt 1.000000 0.000000
vt 1.000000 1.000000
vt 0.000000 1.000000
vt 0.000000 0.000000
vt 1.000000 0.000000
vt 1.000000 1.000000
vt 0.000000 1.000000
vt 0.000000 0.000000
vt 1.000000 0.000000
vt 1.000000 1.000000
vt 0.000000 1.000000
vt 0.000000 0.000000
vt 1.000000 0.000000
vt 1.000000 1.000000
vt 0.000000 1.000000
vt 0.000000 0.000000
vt 1.000000 0.000000
vt 1.000000 1.000000
vt 0.000000 1.000000
vt 0.000000 0.000000
vt 1.000000 0.000000
vt 1.000000 1.000000
vt 0.000000 1.000000
vt 0.000000 0.000000
vt 1.000000 0.000000
vt 1.000000 1.000000
vt 0.000000 1.000000
vt 0.000000 0.000000
vt 1.000000 0.000000
vt 1.000000 1.000000
vt 0.000000 1.000000
vt 0.000000 0.000000
vt 1.000000 0.000000
vt 1.000000 1.000000
vt 0.000000 1.000000
vt 0.000000 0.000000
vt 1.000000 0.000000
vt 1.000000 1.000000
vt 0.000000 1.000000
vt 0.000000 0.000000
vt 1.000000 0.000000
vt 1.000000 1.000000
vt 0.000000 1.000000
vt 0.000000 0.000000
vt 1.000000 0.000000
vt 1.000000 1.000000
vt 0.000000 1.000000
vt 0.000000 0.000000
vt 1.000000 0.000000
vt 1.000000 1.000000
vt 0.000000 1.000000
vt 0.000000 0.000000
vt 1.000000 0.000000
vt 1.000000 1.000000
vt 0.000000 1.000000
vt 0.000000 1.000000
vn 0.000000 0.341885 -0.939742
vn 0.000000 0.341885 -0.939742
vn 0.000000 0.341885 -0.939742
vn 0.000000 0.341885 -0.939742
vn -0.813840 0.341885 -0.469871
vn -0.813840 0.341885 -0.469871
vn -0.813840 0.341884 -0.469871
vn -0.813840 0.341885 -0.469871
vn -0.813840 0.341885 0.469871
vn -0.813840 0.341885 0.469871
vn -0.813841 0.341885 0.469871
vn -0.813840 0.341885 0.469871
vn -0.000000 0.341885 0.939742
vn -0.000000 0.341885 0.939742
vn -0.000000 0.341885 0.939742
vn -0.000000 0.341885 0.939742
vn 0.813840 0.341885 0.469871
vn 0.813840 0.341885 0.469871
vn 0.813840 0.341885 0.469871
vn 0.813840 0.341885 0.469871
vn 0.813840 0.341885 -0.469871
vn 0.813840 0.341885 -0.469871
vn 0.813841 0.341885 -0.469871
vn 0.813840 0.341885 -0.469871
vn 0.000000 -1.000000 0.000000
vn 0.000000 -1.000000 0.000000
vn 0.000000 -1.000000 0.000000
vn 0.000000 -1.000000 0.000000
vn 0.000000 -1.000000 0.000000
vn 0.000000 -1.000000 0.000000
vn 0.000000 -1.000000 0.000000
vn 0.000000 1.000000 0.000000
vn 0.000000 1.000000 0.000000
vn 0.000000 1.000000 0.000000
vn 0.000000 1.000000 0.000000
vn 0.000000 1.000000 0.000000
vn 0.000000 1.000000 0.000000
vn 0.000000 1.000000 0.000000
vn 0.000000 1.000000 0.000000
vn 0.000000 1.000000 0.000000
vn 0.000000 1.000000 0.000000
vn 0.000000 1.000000 0.000000
vn 0.000000 1.000000 0.000000
vn 0.000000 1.000000 -0.000000
vn 0.000000 1.000000 -0.000000
vn 0.000000 1.000000 -0.000000
vn 0.000000 1.000000 -0.000000
vn 0.000000 1.000000 -0.000000
vn 0.000000 1.000000 -0.000000
vn 0.000000 1.000000 -0.000000
vn 0.000000 1.000000 -0.000000
vn 0.000000 1.000000 -0.000000
vn 0.000000 1.000000 -0.000000
vn 0.000000 1.000000 -0.000000
vn 0.000000 1.000000 -0.000000
vn 0.000000 0.000000 -1.000000
vn 0.000000 0.000000 -1.000000
vn 0.000000 0.000000 -1.000000
vn 0.000000 0.000000 -1.000000
vn -0.866025 0.000000 -0.500000
vn -0.866025 0.000000 -0.500000
vn -0.866025 0.000000 -0.500000
vn -0.866025 0.000000 -0.500000
vn -0.866026 0.000000 0.500000
vn -0.866026 0.000000 0.500000
vn -0.866026 0.000000 0.500000
vn -0.866026 0.000000 0.500000
vn -0.000000 0.000000 1.000000
vn -0.000000 0.000000 1.000000
vn -0.000000 0.000000 1.000000
vn -0.000000 0.000000 1.000000
vn 0.866025 0.000000 0.500000
vn 0.866025 0.000000 0.500000
vn 0.866025 0.000000 0.500000
vn 0.866025 0.000000 0.500000
vn 0.866026 0.000000 -0.500000
vn 0.866026 0.000000 -0.500000
vn 0.866026 0.000000 -0.500000
vn 0.866026 0.000000 -0.500000
vn 0.000000 -1.000000 -0.000000
vn 0.000000 -1.000000 -0.000000
vn 0.000000 -1.000000 -0.000000
vn 0.000000 -1.000000 -0.000000
vn 0.000000 -1.000000 0.000000
vn 0.000000 -1.000000 0.000000
vn 0.000000 -1.000000 0.000000
vn 0.000000 -1.000000 0.000000
vn 0.000000 -1.000000 0.000000
vn 0.000000 -1.000000 0.000000
vn 0.000000 -1.000000 0.000000
vn 0.000000 -1.000000 0.000000
vn 0.000000 -1.000000 0.000000
vn 0.000000 -1.000000 0.000000
vn 0.000000 -1.000000 0.000000
vn 0.000000 -1.000000 0.000000
vn 0.000000 -1.000000 -0.000000
vn 0.000000 -1.000000 -0.000000
vn 0.000000 -1.000000 -0.000000
vn 0.000000 -1.000000 -0.000000
vn 0.000000 -1.000000 -0.000000
vn 0.000000 -1.000000 -0.000000
vn 0.000000 -1.000000 -0.000000
vn 0.000000 -1.000000 -0.000000
vn 0.000000 0.266870 -0.963733
vn 0.000000 0.266870 -0.963733
vn 0.000000 0.266870 -0.963733
vn 0.000000 0.266870 -0.963732
vn -0.834617 0.266869 -0.481867
vn -0.834617 0.266869 -0.481867
vn -0.834617 0.266869 -0.481867
vn -0.834617 0.266869 -0.481867
vn -0.834617 0.266870 0.481866
vn -0.834617 0.266870 0.481866
vn -0.834617 0.266870 0.481866
vn -0.834617 0.266870 0.481866
vn -0.000000 0.266870 0.963733
vn -0.000000 0.266870 0.963733
vn -0.000000 0.266870 0.963733
vn -0.000000 0.266870 0.963733
vn 0.834617 0.266870 0.481866
vn 0.834617 0.266870 0.481866
vn 0.834617 0.266870 0.481866
vn 0.834617 0.266870 0.481866
vn 0.834617 0.266871 -0.481866
vn 0.834617 0.266871 -0.481866
vn 0.834617 0.266871 -0.481866
vn 0.834617 0.266871 -0.481866
vn 0.000000 1.000000 0.000000
vn 0.000000 1.000000 -0.000000
vn 0.000000 1.000000 0.000000
vn 0.000000 1.000000 0.000000
vn 0.000000 1.000000 0.000000
vn 0.000000 1.000000 -0.000000
vn 0.000000 1.000000 -0.000000
s off
g platform2
f 1/7/1 2/8/2 8/15/3 7/14/4
f 2/8/5 3/9/6 9/16/7 8/15/8
f 3/9/9 4/10/10 10/17/11 9/16/12
f 4/10/13 5/11/14 11/18/15 10/17/16
f 5/11/17 6/12/18 12/19/19 11/18/20
f 6/12/21 1/13/22 7/20/23 12/19/24
s 1
f 2/2/25 1/1/26 13/21/27
f 3/3/28 2/2/25 13/21/27
f 4/4/29 3/3/28 13/21/27
f 5/5/30 4/4/29 13/21/27
f 6/6/31 5/5/30 13/21/27
f 1/1/26 6/6/31 13/21/27
s off
f 7/22/32 8/23/33 15/24/34 14/25/35
f 8/26/36 9/27/37 16/28/38 15/29/39
f 9/30/40 10/31/41 17/32/42 16/33/43
f 10/34/44 11/35/45 18/36/46 17/37/47
f 11/38/48 12/39/49 19/40/50 18/41/51
f 12/42/52 7/43/53 14/44/54 19/45/55
f 14/46/56 15/47/57 21/48/58 20/49/59
f 15/50/60 16/51/61 22/52/62 21/53/63
f 16/54/64 17/55/65 23/56/66 22/57/67
f 17/58/68 18/59/69 24/60/70 23/61/71
f 18/62/72 19/63/73 25/64/74 24/65/75
f 19/66/76 14/67/77 20/68/78 25/69/79
f 20/70/80 21/71/81 27/72/82 26/73/83
f 21/74/84 22/75/85 28/76/86 27/77/87
f 22/78/88 23/79/89 29/80/90 28/81/91
f 23/82/92 24/83/93 30/84/94 29/85/95
f 24/86/96 25/87/97 31/88/98 30/89/99
f 25/90/100 20/91/101 26/92/102 31/93/103
f 26/94/104 27/95/105 33/96/106 32/97/107
f 27/98/108 28/99/109 34/100/110 33/101/111
f 28/102/112 29/103/113 35/104/114 34/105/115
f 29/106/116 30/107/117 36/108/118 35/109/119
f 30/110/120 31/111/121 37/112/122 36/113/123
f 31/114/124 26/115/125 32/116/126 37/117/127
s 2
f 36/113/128 38/118/129 35/109/130
f 32/97/131 38/118/129 37/117/132
f 33/101/133 34/105/134 38/118/129
f 35/109/130 38/118/129 34/105/134
f 37/117/132 38/118/129 36/113/128
f 33/101/133 38/118/129 32/97/131
