# This file uses centimeters as units for non-parametric coordinates.

g default
v 0.000000 0.000000 0.500000
v 0.433013 0.000000 -0.250000
v -0.216506 0.375000 -0.250000
v -0.216506 -0.277187 -0.250000
v 0.433013 0.000000 0.250000
v 0.163663 0.283473 -0.377964
v -0.216506 0.375000 0.250000
v 0.250000 0.433013 0.000000
v 0.163663 -0.185661 -0.377964
v -0.327327 0.000000 -0.377964
v 0.000000 0.000000 -0.500000
v -0.216506 -0.277187 0.250000
v -0.500000 0.000000 0.000000
v 0.250000 -0.335200 0.000000
vt 0.500000 0.500000
vt 0.833333 0.500000
vt 0.113593 0.769947
vt 0.113593 0.230053
vt 0.666667 0.500000
vt 0.934963 0.691875
vt 0.386407 0.769947
vt 0.750000 0.833333
vt 0.934963 0.308125
vt 0.113593 0.500000
vt 1.000000 0.500000
vt 0.386407 0.230053
vt 0.250000 0.500000
vt 0.750000 0.166667
vt 1.113593 0.769947
vt 1.386407 0.769947
vt 1.113593 0.230053
vt 1.113593 0.500000
vt 1.386407 0.230053
vn 0.353553 0.612372 0.707107
vn 0.353553 0.612372 0.707107
vn 0.353553 0.612372 0.707107
vn 0.353553 0.612372 0.707107
vn 0.870916 0.463076 -0.164517
vn 0.870916 0.463076 -0.164517
vn 0.870916 0.463076 -0.164517
vn 0.870916 0.463076 -0.164517
vn -0.034422 0.985773 -0.164517
vn -0.034422 0.985773 -0.164517
vn -0.034422 0.985773 -0.164517
vn -0.034422 0.985773 -0.164517
vn 0.500000 0.000000 -0.866026
vn 0.500000 0.000000 -0.866025
vn 0.500000 0.000000 -0.866026
vn 0.500000 0.000000 -0.866026
vn -0.211195 -0.558518 -0.802156
vn -0.211195 -0.558518 -0.802156
vn -0.211195 -0.558518 -0.802156
vn -0.211195 -0.558518 -0.802156
vn -0.250000 0.433013 -0.866025
vn -0.250000 0.433013 -0.866025
vn -0.250000 0.433013 -0.866025
vn -0.250000 0.433013 -0.866025
vn -0.707107 0.000000 0.707107
vn -0.707107 0.000000 0.707107
vn -0.707107 0.000000 0.707107
vn -0.707107 0.000000 0.707107
vn -0.836494 0.522697 -0.164517
vn -0.836494 0.522697 -0.164517
vn -0.836494 0.522697 -0.164517
vn -0.836494 0.522697 -0.164517
vn -0.755212 -0.638431 -0.148531
vn -0.755211 -0.638431 -0.148531
vn -0.755211 -0.638431 -0.148531
vn -0.755211 -0.638431 -0.148531
vn 0.304579 -0.713706 0.630758
vn 0.304579 -0.713706 0.630758
vn 0.304579 -0.713706 0.630758
vn 0.304579 -0.713706 0.630758
vn -0.034422 -0.985773 -0.164517
vn -0.034422 -0.985774 -0.164517
vn -0.034422 -0.985774 -0.164517
vn -0.034422 -0.985773 -0.164517
vn 0.802870 -0.569592 -0.175968
vn 0.802870 -0.569592 -0.175968
vn 0.802870 -0.569592 -0.175968
vn 0.802870 -0.569592 -0.175968
s off
g smallRock2
f 7/7/1 1/1/2 5/5/3 8/8/4
f 5/5/5 2/2/6 6/6/7 8/8/8
f 6/6/9 3/15/10 7/16/11 8/8/12
f 6/6/13 2/2/14 9/9/15 11/11/16
f 9/9/17 4/17/18 10/18/19 11/11/20
f 10/18/21 3/15/22 6/6/23 11/11/24
f 12/12/25 1/1/26 7/7/27 13/13/28
f 7/7/29 3/3/30 10/10/31 13/13/32
f 10/10/33 4/4/34 12/12/35 13/13/36
f 5/5/37 1/1/38 12/12/39 14/14/40
f 12/19/41 4/17/42 9/9/43 14/14/44
f 9/9/45 2/2/46 5/5/47 14/14/48
