# This file uses centimeters as units for non-parametric coordinates.

g default
v 0.809017 0.382858 -0.587785
v 0.309017 0.382858 -0.951057
v -0.309017 0.382858 -0.951057
v -0.809017 0.382858 -0.587785
v -1.000000 0.382858 0.000000
v -0.809017 0.382858 0.587785
v -0.309017 0.382858 0.951057
v 0.309017 0.382858 0.951057
v 0.809017 0.382858 0.587785
v 1.000000 0.382858 0.000000
v 0.348706 1.872748 -0.253350
v 0.133194 1.872748 -0.409929
v -0.133194 1.872748 -0.409928
v -0.348706 1.872748 -0.253350
v -0.431024 1.872748 -0.000000
v -0.348706 1.872748 0.253350
v -0.133194 1.872748 0.409928
v 0.133194 1.872748 0.409928
v 0.348706 1.872748 0.253350
v 0.431024 1.872748 -0.000000
v 0.000000 0.382858 0.000000
v 0.628588 1.872748 -0.456696
v 0.240099 1.872748 -0.738950
v -0.240099 1.872748 -0.738949
v -0.628588 1.872748 -0.456696
v -0.776978 1.872748 0.000000
v -0.628588 1.872748 0.456696
v -0.240099 1.872748 0.738950
v 0.240099 1.872748 0.738949
v 0.628588 1.872748 0.456696
v 0.776977 1.872748 -0.000000
v 0.213688 3.102546 -0.155254
v 0.081622 3.102546 -0.251205
v -0.081622 3.102546 -0.251205
v -0.213688 3.102546 -0.155254
v -0.264133 3.102546 -0.000000
v -0.213688 3.102546 0.155253
v -0.081622 3.102546 0.251205
v 0.081622 3.102546 0.251205
v 0.213688 3.102546 0.155253
v 0.264133 3.102546 -0.000000
v 0.378222 3.102546 -0.274795
v 0.144468 3.102546 -0.444627
v -0.144468 3.102546 -0.444627
v -0.378222 3.102546 -0.274795
v -0.467508 3.102546 -0.000000
v -0.378222 3.102546 0.274794
v -0.144468 3.102546 0.444627
v 0.144468 3.102546 0.444627
v 0.378222 3.102546 0.274794
v 0.467508 3.102546 -0.000000
v -0.000000 4.167653 -0.000000
vt 0.626409 0.064409
vt 0.548284 0.007647
vt 0.451716 0.007647
vt 0.373591 0.064409
vt 0.343750 0.156250
vt 0.373591 0.248091
vt 0.451716 0.304853
vt 0.548284 0.304853
vt 0.626409 0.248091
vt 0.656250 0.156250
vt 0.375000 0.312500
vt 0.400000 0.312500
vt 0.425000 0.312500
vt 0.450000 0.312500
vt 0.475000 0.312500
vt 0.500000 0.312500
vt 0.525000 0.312500
vt 0.550000 0.312500
vt 0.575000 0.312500
vt 0.600000 0.312500
vt 0.625000 0.312500
vt 0.375000 0.688440
vt 0.400000 0.688440
vt 0.425000 0.688440
vt 0.450000 0.688440
vt 0.475000 0.688440
vt 0.500000 0.688440
vt 0.525000 0.688440
vt 0.550000 0.688440
vt 0.575000 0.688440
vt 0.600000 0.688440
vt 0.625000 0.688440
vt 0.626409 0.751909
vt 0.548284 0.695147
vt 0.451716 0.695147
vt 0.373591 0.751909
vt 0.343750 0.843750
vt 0.373591 0.935591
vt 0.451716 0.992353
vt 0.548284 0.992353
vt 0.626409 0.935591
vt 0.656250 0.843750
vt 0.500000 0.150000
vt 0.500000 0.843182
vt 0.626409 0.935591
vt 0.548284 0.992353
vt 0.451716 0.992353
vt 0.373591 0.935591
vt 0.343750 0.843750
vt 0.373591 0.751909
vt 0.451716 0.695147
vt 0.548284 0.695147
vt 0.626409 0.751909
vt 0.656250 0.843750
vt 0.626409 0.935591
vt 0.548284 0.992353
vt 0.451716 0.992353
vt 0.373591 0.935591
vt 0.343750 0.843750
vt 0.373591 0.751909
vt 0.451716 0.695147
vt 0.548284 0.695147
vt 0.626409 0.751909
vt 0.656250 0.843750
vt 0.626409 0.935591
vt 0.548284 0.992353
vt 0.451716 0.992353
vt 0.373591 0.935591
vt 0.343750 0.843750
vt 0.373591 0.751909
vt 0.451716 0.695147
vt 0.548284 0.695147
vt 0.626409 0.751909
vt 0.656250 0.843750
vn 0.552474 0.341381 -0.760415
vn 0.552474 0.341381 -0.760415
vn 0.552474 0.341381 -0.760415
vn 0.552474 0.341381 -0.760415
vn -0.000000 0.341381 -0.939925
vn -0.000000 0.341381 -0.939925
vn -0.000000 0.341381 -0.939925
vn -0.000000 0.341381 -0.939925
vn -0.552474 0.341381 -0.760415
vn -0.552474 0.341381 -0.760415
vn -0.552474 0.341381 -0.760415
vn -0.552474 0.341381 -0.760415
vn -0.893922 0.341381 -0.290453
vn -0.893922 0.341381 -0.290453
vn -0.893922 0.341381 -0.290453
vn -0.893922 0.341381 -0.290453
vn -0.893922 0.341381 0.290453
vn -0.893922 0.341381 0.290453
vn -0.893922 0.341381 0.290453
vn -0.893922 0.341381 0.290453
vn -0.552474 0.341381 0.760415
vn -0.552474 0.341381 0.760415
vn -0.552474 0.341381 0.760415
vn -0.552474 0.341381 0.760415
vn 0.000000 0.341381 0.939925
vn 0.000000 0.341381 0.939925
vn 0.000000 0.341381 0.939925
vn 0.000000 0.341381 0.939925
vn 0.552474 0.341381 0.760415
vn 0.552474 0.341381 0.760415
vn 0.552474 0.341381 0.760415
vn 0.552474 0.341381 0.760415
vn 0.893922 0.341381 0.290453
vn 0.893922 0.341381 0.290453
vn 0.893922 0.341381 0.290453
vn 0.893922 0.341381 0.290453
vn 0.893922 0.341381 -0.290453
vn 0.893922 0.341381 -0.290453
vn 0.893922 0.341381 -0.290453
vn 0.893922 0.341381 -0.290453
vn 0.000000 -1.000000 0.000000
vn 0.000000 -1.000000 0.000000
vn 0.000000 -1.000000 -0.000000
vn 0.000000 -1.000000 0.000000
vn 0.000000 -1.000000 0.000000
vn 0.000000 -1.000000 0.000000
vn 0.000000 -1.000000 -0.000000
vn 0.000000 -1.000000 -0.000000
vn 0.000000 -1.000000 0.000000
vn 0.000000 -1.000000 0.000000
vn 0.000000 -1.000000 0.000000
vn 0.000000 -1.000000 0.000000
vn 0.000000 -1.000000 0.000000
vn 0.000000 -1.000000 0.000000
vn 0.000000 -1.000000 0.000000
vn 0.000000 -1.000000 0.000000
vn 0.000000 -1.000000 0.000000
vn 0.000000 -1.000000 0.000000
vn 0.000000 -1.000000 0.000000
vn 0.000000 -1.000000 0.000000
vn 0.000000 -1.000000 0.000000
vn 0.000000 -1.000000 0.000000
vn 0.000000 -1.000000 0.000000
vn 0.000000 -1.000000 -0.000000
vn 0.000000 -1.000000 -0.000000
vn 0.000000 -1.000000 -0.000000
vn 0.000000 -1.000000 -0.000000
vn 0.000000 -1.000000 0.000000
vn 0.000000 -1.000000 0.000000
vn 0.000000 -1.000000 0.000000
vn 0.000000 -1.000000 0.000000
vn 0.000000 -1.000000 -0.000000
vn 0.000000 -1.000000 -0.000000
vn 0.000000 -1.000000 -0.000000
vn 0.000000 -1.000000 -0.000000
vn 0.000000 -1.000000 -0.000000
vn 0.000000 -1.000000 -0.000000
vn 0.000000 -1.000000 -0.000000
vn 0.000000 -1.000000 -0.000000
vn 0.000000 -1.000000 -0.000000
vn 0.000000 -1.000000 -0.000000
vn 0.000000 -1.000000 -0.000000
vn 0.000000 -1.000000 -0.000000
vn 0.000000 -1.000000 0.000000
vn 0.000000 -1.000000 0.000000
vn 0.000000 -1.000000 0.000000
vn 0.000000 -1.000000 0.000000
vn 0.000000 -1.000000 -0.000000
vn 0.000000 -1.000000 -0.000000
vn 0.000000 -1.000000 -0.000000
vn 0.000000 -1.000000 -0.000000
vn 0.546382 0.368669 -0.752031
vn 0.546382 0.368669 -0.752031
vn 0.546382 0.368669 -0.752031
vn 0.546382 0.368669 -0.752031
vn -0.000000 0.368669 -0.929561
vn -0.000000 0.368669 -0.929561
vn -0.000000 0.368669 -0.929561
vn -0.000000 0.368669 -0.929561
vn -0.546382 0.368669 -0.752031
vn -0.546382 0.368669 -0.752031
vn -0.546382 0.368669 -0.752031
vn -0.546382 0.368669 -0.752031
vn -0.884065 0.368669 -0.287250
vn -0.884065 0.368669 -0.287250
vn -0.884065 0.368669 -0.287250
vn -0.884065 0.368669 -0.287250
vn -0.884065 0.368669 0.287250
vn -0.884065 0.368669 0.287250
vn -0.884065 0.368669 0.287250
vn -0.884065 0.368669 0.287250
vn -0.546382 0.368669 0.752031
vn -0.546382 0.368669 0.752031
vn -0.546382 0.368669 0.752031
vn -0.546382 0.368669 0.752031
vn 0.000000 0.368669 0.929561
vn 0.000000 0.368669 0.929561
vn 0.000000 0.368669 0.929561
vn 0.000000 0.368669 0.929561
vn 0.546382 0.368669 0.752031
vn 0.546382 0.368669 0.752031
vn 0.546382 0.368669 0.752031
vn 0.546382 0.368669 0.752031
vn 0.884065 0.368669 0.287250
vn 0.884065 0.368669 0.287250
vn 0.884065 0.368669 0.287250
vn 0.884065 0.368669 0.287250
vn 0.884065 0.368669 -0.287250
vn 0.884065 0.368669 -0.287250
vn 0.884065 0.368669 -0.287250
vn 0.884065 0.368669 -0.287250
vn 0.000000 -1.000000 0.000000
vn 0.000000 -1.000000 0.000000
vn 0.000000 -1.000000 0.000000
vn 0.000000 -1.000000 0.000000
vn 0.000000 -1.000000 0.000000
vn 0.000000 -1.000000 0.000000
vn 0.000000 -1.000000 0.000000
vn 0.000000 -1.000000 0.000000
vn 0.000000 -1.000000 -0.000000
vn 0.000000 -1.000000 -0.000000
vn 0.000000 -1.000000 -0.000000
vn 0.000000 -1.000000 -0.000000
vn 0.000000 -1.000000 0.000000
vn 0.000000 -1.000000 0.000000
vn 0.000000 -1.000000 0.000000
vn 0.000000 -1.000000 0.000000
vn 0.000000 -1.000000 -0.000001
vn 0.000000 -1.000000 -0.000001
vn 0.000000 -1.000000 -0.000001
vn 0.000000 -1.000000 -0.000001
vn 0.000000 -1.000000 0.000000
vn 0.000000 -1.000000 0.000000
vn 0.000000 -1.000000 0.000000
vn 0.000000 -1.000000 0.000000
vn 0.000000 -1.000000 -0.000001
vn 0.000000 -1.000000 -0.000001
vn 0.000000 -1.000000 -0.000001
vn 0.000000 -1.000000 -0.000001
vn 0.000000 -1.000000 0.000000
vn 0.000000 -1.000000 0.000000
vn 0.000000 -1.000000 0.000000
vn 0.000000 -1.000000 0.000000
vn 0.000000 -1.000000 0.000000
vn 0.000000 -1.000000 0.000000
vn 0.000000 -1.000000 0.000000
vn 0.000000 -1.000000 0.000000
vn 0.000000 -1.000000 0.000001
vn 0.000000 -1.000000 0.000001
vn 0.000000 -1.000000 0.000001
vn 0.000000 -1.000000 0.000001
vn 0.542420 0.385230 -0.746578
vn 0.542420 0.385230 -0.746578
vn 0.542420 0.385230 -0.746578
vn 0.000000 0.385229 -0.922821
vn 0.000000 0.385229 -0.922821
vn 0.000000 0.385229 -0.922821
vn -0.542420 0.385230 -0.746578
vn -0.542420 0.385230 -0.746578
vn -0.542420 0.385230 -0.746578
vn -0.877655 0.385230 -0.285168
vn -0.877655 0.385230 -0.285168
vn -0.877655 0.385229 -0.285168
vn -0.877655 0.385230 0.285168
vn -0.877655 0.385230 0.285168
vn -0.877655 0.385230 0.285168
vn -0.542420 0.385229 0.746578
vn -0.542420 0.385229 0.746578
vn -0.542420 0.385229 0.746578
vn 0.000000 0.385229 0.922821
vn 0.000000 0.385229 0.922821
vn 0.000000 0.385229 0.922821
vn 0.542420 0.385230 0.746578
vn 0.542420 0.385230 0.746578
vn 0.542420 0.385230 0.746578
vn 0.877655 0.385230 0.285168
vn 0.877654 0.385230 0.285168
vn 0.877655 0.385230 0.285168
vn 0.877655 0.385230 -0.285168
vn 0.877655 0.385230 -0.285168
vn 0.877655 0.385230 -0.285168
s off
g pCylinder1
f 1/11/1 2/12/2 12/23/3 11/22/4
f 2/12/5 3/13/6 13/24/7 12/23/8
f 3/13/9 4/14/10 14/25/11 13/24/12
f 4/14/13 5/15/14 15/26/15 14/25/16
f 5/15/17 6/16/18 16/27/19 15/26/20
f 6/16/21 7/17/22 17/28/23 16/27/24
f 7/17/25 8/18/26 18/29/27 17/28/28
f 8/18/29 9/19/30 19/30/31 18/29/32
f 9/19/33 10/20/34 20/31/35 19/30/36
f 10/20/37 1/21/38 11/32/39 20/31/40
s 1
f 2/2/41 1/1/42 21/43/43
f 3/3/44 2/2/41 21/43/43
f 4/4/45 3/3/44 21/43/43
f 5/5/46 4/4/45 21/43/43
f 6/6/47 5/5/46 21/43/43
f 7/7/48 6/6/47 21/43/43
f 8/8/49 7/7/48 21/43/43
f 9/9/50 8/8/49 21/43/43
f 10/10/51 9/9/50 21/43/43
f 1/1/42 10/10/51 21/43/43
s off
f 11/41/52 12/40/53 23/46/54 22/45/55
f 12/40/56 13/39/57 24/47/58 23/46/59
f 13/39/60 14/38/61 25/48/62 24/47/63
f 14/38/64 15/37/65 26/49/66 25/48/67
f 15/37/68 16/36/69 27/50/70 26/49/71
f 16/36/72 17/35/73 28/51/74 27/50/75
f 17/35/76 18/34/77 29/52/78 28/51/79
f 18/34/80 19/33/81 30/53/82 29/52/83
f 19/33/84 20/42/85 31/54/86 30/53/87
f 20/42/88 11/41/89 22/45/90 31/54/91
f 22/45/92 23/46/93 33/56/94 32/55/95
f 23/46/96 24/47/97 34/57/98 33/56/99
f 24/47/100 25/48/101 35/58/102 34/57/103
f 25/48/104 26/49/105 36/59/106 35/58/107
f 26/49/108 27/50/109 37/60/110 36/59/111
f 27/50/112 28/51/113 38/61/114 37/60/115
f 28/51/116 29/52/117 39/62/118 38/61/119
f 29/52/120 30/53/121 40/63/122 39/62/123
f 30/53/124 31/54/125 41/64/126 40/63/127
f 31/54/128 22/45/129 32/55/130 41/64/131
f 32/55/132 33/56/133 43/66/134 42/65/135
f 33/56/136 34/57/137 44/67/138 43/66/139
f 34/57/140 35/58/141 45/68/142 44/67/143
f 35/58/144 36/59/145 46/69/146 45/68/147
f 36/59/148 37/60/149 47/70/150 46/69/151
f 37/60/152 38/61/153 48/71/154 47/70/155
f 38/61/156 39/62/157 49/72/158 48/71/159
f 39/62/160 40/63/161 50/73/162 49/72/163
f 40/63/164 41/64/165 51/74/166 50/73/167
f 41/64/168 32/55/169 42/65/170 51/74/171
f 42/65/172 43/66/173 52/44/174
f 43/66/175 44/67/176 52/44/177
f 44/67/178 45/68/179 52/44/180
f 45/68/181 46/69/182 52/44/183
f 46/69/184 47/70/185 52/44/186
f 47/70/187 48/71/188 52/44/189
f 48/71/190 49/72/191 52/44/192
f 49/72/193 50/73/194 52/44/195
f 50/73/196 51/74/197 52/44/198
f 51/74/199 42/65/200 52/44/201
g default
v 0.055529 -0.179695 -0.170900
v -0.145376 -0.179695 -0.105622
v -0.145376 -0.179695 0.105622
v 0.055529 -0.179695 0.170900
v 0.179695 -0.179695 0.000000
v 0.047413 0.133423 -0.133708
v -0.110999 0.127023 -0.082636
v -0.110999 0.106313 0.082636
v 0.047413 0.099913 0.133708
v 0.145317 0.116668 -0.000000
v 0.000000 -0.179695 0.000000
v 0.055789 0.385867 -0.122370
v -0.094830 0.380894 -0.087103
v 0.004642 0.386827 -0.001057
v -0.107982 0.384120 0.067076
v 0.034508 0.391088 0.127097
v 0.135725 0.392167 0.010013
vt 0.548284 0.007647
vt 0.373591 0.064409
vt 0.373591 0.248091
vt 0.548284 0.304853
vt 0.656250 0.156250
vt 0.375000 0.312500
vt 0.425000 0.312500
vt 0.475000 0.312500
vt 0.525000 0.312500
vt 0.575000 0.312500
vt 0.625000 0.312500
vt 0.375000 0.688440
vt 0.425000 0.688440
vt 0.475000 0.688440
vt 0.525000 0.688440
vt 0.575000 0.688440
vt 0.625000 0.688440
vt 0.548284 0.695147
vt 0.373591 0.751909
vt 0.373591 0.935591
vt 0.548284 0.992353
vt 0.656250 0.843750
vt 0.500000 0.150000
vt 0.500000 0.837500
vt 0.548284 0.992353
vt 0.373591 0.935591
vt 0.373591 0.751909
vt 0.548284 0.695147
vt 0.656250 0.843750
vn -0.308052 0.104856 -0.945574
vn -0.308052 0.104856 -0.945574
vn -0.308052 0.104856 -0.945574
vn -0.308052 0.104856 -0.945574
vn -0.993319 0.115223 0.006338
vn -0.993319 0.115223 0.006338
vn -0.993319 0.115223 0.006338
vn -0.993319 0.115223 0.006338
vn -0.304176 0.114739 0.945681
vn -0.304176 0.114739 0.945681
vn -0.304176 0.114739 0.945681
vn -0.304176 0.114739 0.945681
vn 0.801675 0.097230 0.589799
vn 0.801675 0.097230 0.589799
vn 0.801675 0.097230 0.589799
vn 0.801675 0.097230 0.589799
vn 0.807039 0.091862 -0.583308
vn 0.807040 0.091862 -0.583308
vn 0.807039 0.091862 -0.583308
vn 0.807040 0.091862 -0.583308
vn 0.000000 -1.000000 0.000000
vn 0.000000 -1.000000 0.000000
vn 0.000000 -1.000000 -0.000000
vn 0.000000 -1.000000 -0.000000
vn 0.000000 -1.000000 -0.000000
vn 0.000000 -1.000000 0.000000
vn -0.038651 0.998960 -0.024202
vn -0.038651 0.998960 -0.024201
vn -0.038651 0.998960 -0.024202
vn -0.038651 0.998960 -0.024201
vn -0.038651 0.998960 -0.024202
vn -0.038651 0.998960 -0.024202
vn -0.269881 0.026145 -0.962539
vn -0.269881 0.026145 -0.962539
vn -0.269881 0.026145 -0.962539
vn -0.269881 0.026145 -0.962539
vn -0.998633 0.034558 -0.039225
vn -0.998633 0.034558 -0.039225
vn -0.998633 0.034558 -0.039225
vn -0.998633 0.034558 -0.039225
vn -0.346237 0.030517 0.937651
vn -0.346237 0.030517 0.937651
vn -0.346237 0.030517 0.937651
vn -0.346237 0.030517 0.937651
vn 0.781930 0.027304 0.622768
vn 0.781930 0.027304 0.622768
vn 0.781930 0.027304 0.622768
vn 0.781930 0.027304 0.622768
vn 0.831603 0.024355 -0.554837
vn 0.831603 0.024355 -0.554837
vn 0.831603 0.024355 -0.554837
vn 0.831603 0.024355 -0.554837
s off
g trunk
f 53/80/202 54/81/203 59/87/204 58/86/205
f 54/81/206 55/82/207 60/88/208 59/87/209
f 55/82/210 56/83/211 61/89/212 60/88/213
f 56/83/214 57/84/215 62/90/216 61/89/217
f 57/84/218 53/85/219 58/91/220 62/90/221
s 1
f 54/76/222 53/75/223 63/97/224
f 55/77/225 54/76/222 63/97/224
f 56/78/226 55/77/225 63/97/224
f 57/79/227 56/78/226 63/97/224
f 53/75/223 57/79/227 63/97/224
s 2
f 64/99/228 65/100/229 66/98/230
f 65/100/229 67/101/231 66/98/230
f 67/101/231 68/102/232 66/98/230
f 68/102/232 69/103/233 66/98/230
f 69/103/233 64/99/228 66/98/230
s off
f 58/95/234 59/94/235 65/100/236 64/99/237
f 59/94/238 60/93/239 67/101/240 65/100/241
f 60/93/242 61/92/243 68/102/244 67/101/245
f 61/92/246 62/96/247 69/103/248 68/102/249
f 62/96/250 58/95/251 64/99/252 69/103/253
